<svg xmlns="http://www.w3.org/2000/svg" xml:space="preserve" viewBox="0 0 400 400"><path fill="#BCBCBC" d="M346 401h-33c-3-3-6-1-9 0h-3v-4c1-1 2-2 0-3l-3-1-7-4c-1-4 1-4 4-4 4 0 7 0 9-4 7-2 12 1 17 2l14 2 4-2-2-4c-5-4-10-8-17-9-4 0-7-2-10-3-1-1-3-2-2-3 0-2 1-2 3-3h4c7 4 14 3 21 4l2-1c-8-5-8-5-5-11-4 0-7-1-8-4-2-3-2-6 1-8 2-2 5-2 7 1s3 1 4-1c2-3-1-10-5-12-2-1-5-2-4-5 2-3 4-3 7-3l10 2c1 0 2 1 3-1l-1-2-6-4c-3-1-5-2-3-5 1-4-1-5-4-6l-10-3c-2 0-4-1-4-4 0-4-6-10-10-11-3 0-3 2-3 3l-1 11c0 2 1 3 3 4 2 3 5 5 5 8 2 4 0 6-4 5l-11-4c-4-1-3-5-4-7v-4l-2-9v-7h-4c-1-1 0-2 1-3 4-5 3-9-1-14l-4-4c0-4-3-7 0-11 0-1-2-2-3-1-4 2-6 2-9-1-4-4-4-3-4-10l1-2 1-1 4 1c3 0 6-2 9 2 4-3 9-4 10-9 2-1 4-1 5-4 2-4 6-8 7-13l5-2 7 4 22 16c8 8 17 10 26 12l-11-9c-2-1-4-2-4-5 1-3 0-7 4-9 3 2 2 5 2 7l5-2c4-2 7-2 10 1l3 2c4 0 6 1 10 3h1c2 2 2 6 5 8l1 1 2 2 2 3c2 2 4 4 4 7 0 2 0 4-2 5s-3 0-4-1l-2-1-2-1-1 3 4 5c1 3 0 5-2 7-1 2-3 2-5 0 2 3 3 6 0 8-2 3-3 5-3 8-5 4-11 4-16 7-3 2-3 8 0 10s6 5 11 5l2 2c2 4 4 7 9 9 2 0 2 2 2 4 4-5 5-5 10-1v11c-4 4-6 4-10 0-2-1-3-4-6-1-3 2-5 0-7-1l-11-8c-1-1-2-3-4-2 0 2 2 4 0 7h-3c-8-3-12 0-11 8l4 14 1 1c4 2 6 7 8 11 1 4 5 4 6 8-1 3-3 3-4 3h-4c-2 3-3 5-2 7 2 5 0 8-3 10l-9 8z"/><path fill="#F7F7F7" d="M1 113V5c0-3 1-4 4-4h109c1 2-1 4-2 5l-10 11-2 1-4 4-1 2-2 2c0 2-1 2-2 3-5 2-8 5-11 9l-1 2-23 21c-8 6-13 13-20 20L5 112c-1 1-2 2-4 1z"/><path fill="#585858" d="M1 323v-88c4-3 7-1 10 2l2 4c3 10 11 15 18 22 3 2 6 2 9-2 1-2 2-5 6-4 2 1 2 2 2 4l-4 6c-1 2-2 5 0 7 3 4 3 8 4 12-1 4-3 4-6 3-2-2-4-1-4 2 1 2 1 5 3 6 8 6 11 16 17 23 3 3 6 6 8 11l2 2 1 1c6 9 15 12 22 17l7 1c6 6 13 9 20 12l8 8v6l-2 3-1 4c-3-1-4-4-7-7-6-7-13-13-22-15-4-1-8-2-10 1-3 3-2 7 0 10 1 5 4 8 8 9s8 3 9 8c0 3 2 4 4 5s4 2 3 5H95c-2-1-2-3-2-5-2-2-4-4-7-2h-5c-2-2-4-3-4-5l-13-24c-3-5-5-10-5-16 1-3-2-5-4-6-11-6-21-15-30-24-4-3-10-3-13 1-3 3-7 3-11 3z"/><path fill="#A7A7A7" d="M207 1h69l2 3c1 2 2 3 4 3 2-1 1-3 0-4l1-2h9c1 5-3 6-5 9-1 2-4 3-1 5 2 2-1 3-2 4l-7 2c4 2 6 4 4 8l-2 1c-4-1-7 0-11 1-2 0-4 1-5-1-2-2 0-4 1-6s4-4 2-7c-3-3-7-2-9-1-5 3-12 2-15 9-2 2-5 1-7 0l-9-2h-4c-4 3-3 6 1 8 4 1 7 3 8 7 2 3 6 5 9 7 1 1 3 0 4-1l1-1c2-1 4-4 6-2s-1 4-2 6l-2 1c-1 2-1 4-3 5-6 2-8 8-12 12l-24 25c-3 0-5 0-4-4 0-2-1-3-3-4l-2-1c-2-2-5-4-3-7 1-4 4-3 7-2l10 1 4-1c2-4 6-6 9-9l2-5c-1-2 0-5-2-5-3-1-4 1-5 3-2 4-7 4-11 5-3 0-3-2-2-4l5-4c2-2 3-3 0-5l-4-5c-1-2-3-4-5-4h-1c-3 0-6-4-9-2-5 4-9 8-12 14v3l2 1c5 3 6 7 4 9-2 3-6 3-10 0l-5-4c-3-4-7-6-12-7h-2 1c6 6 8 13 10 20-1 1-3 1-3 3 0 1 4 2 2 5h-8c-5-1-10-2-15-1a63 63 0 0 1-9 0c-2-1-3-3-5-3l-2-2c-2-3-3-5-6-6l-3-1c-3-1-5-3-6-5l1-3c2-2 2-4-2-4-2 1-4 0-4-3 0-2 2-4 4-4 5 1 8-2 12-5s9-3 14-3c3-1 6 2 7 6 2 4 3 5 7 1l3-3c2-2 3-2 5 0 2 3 6 3 9 4 2 0 3-1 4-4s3-6 7-8l4-5c1-3 3-5 6-5l3-1c4-4 8-4 13 0l-8-13V9c0-6 0-6 7-8z"/><path fill="#ADADAD" d="M281 29c0-3 0-6-5-6l-1-1c-1-1 0-1 1-2l7-2 2-2c1-1-1-1-2-1-3 0-2-2 0-3 4-3 6-7 9-11h53c0 3 1 4 4 5 4 1 6 4 9 7 1-3 0-6 3-8 2-1 5-1 5 2 2 3 5 6 5 10l1 2c5 1 7 5 11 7 2 0 4 1 4 3 1 5 5 6 9 6 2 0 3 1 5 3v24c-3 2-6 2-9 2l-11-2c6 4 14 7 20 13v2c-2 2-4 0-6-1-3-1-5-1-8 1-1 1-1 4-4 3l-5-2c-3-4-7-7-9-12 5-4 2-9 5-13l6-1c1 0 2 0 3-2l-2-2-23-8h-2c0 3-1 4-4 3s-6-1-7-5l-1-6c0-2-1-3-4-3-5 1-10 1-13-4-1-1-3-3-5-1-1 0-2 7-1 8 5 2 7 8 9 14l-3 4c-4-2-7-4-12-4-2 0-2-3-2-5 0-4-2-6-5-8-5-3-5-4 0-7l3-2 2-2c0-2-1-3-3-3h-17c-2 0-3 2-4 4-2 3-3 6-8 6z"/><path fill="#626262" d="M46 257c-2 0-3 2-4 4-3 6-8 6-13 2-3-3-6-7-10-9l-4-5-3-8c-2-4-5-7-11-6v-68c3-2 5 0 6 3 3 4 6 8 12 8 3 0 4 2 4 4 0 4 1 8 4 11l1 4c1 5 3 5 7 3 2-2 5-3 8-1v4c-3 15 1 29 3 44v10z"/><path fill="#6E6E6E" d="m81 393 5 1c5-1 6 0 7 7H64c-3-3-6-4-11-4-2 1-5 0-6-2-5-5-11-6-18-9-5-2-12-3-17-7-3-2-7-1-11-3v-29c4-3 7-7 13-6 1 1 2 0 3-1s3-1 4 1c7 8 16 11 25 13 5 1 9 3 10 8l4 4c5 5 10 9 11 17 1 5 4 8 10 10z"/><path fill="#A1A1A1" d="M201 13c3 4 5 9 9 12 2 2 1 3-1 3l-5-2c-2-3-4-3-6 0-2 2-3 3-6 2-3 0-4 2-5 5s-2 5-5 6c-4 1-5 4-6 7-1 4-3 6-7 4-3-1-7 0-8-5h-2c-1 3-4 4-5 5-4 3-6 3-8-2-1-3-3-7-6-6-5 0-10 0-14 4-3 3-6 6-11 4-2 0-3 1-3 2v3h6l1 4-3 4c-2 1-4 0-5-1-4-1-8-3-13-3-2 0-3-2-5-1l-6 3-5-1-5-2h-3l-1-1c-2-2-1-3 1-4 5-3 10-3 15-2 4 0 7 0 9-3 3-3 6-3 10-3 3 0 5-2 7-4 3-5 8-6 13-5 2 0 5 0 6-2 4-4 8-4 13-2h1l-2-3c-8-6-8-14 0-21l9-7h17l12 7 2 1c5 5 3 9-3 13 5 1 8-1 12-2s4-4 6-7z"/><path fill="#B7B7B7" d="m401 325-4-1c-2-1-4-1-4 2 0 1 0 3-2 3-2-1-2-2-2-3 2-4 0-4-3-4-2 0-4-2-5-4s-2-6-4-6c-6 2-8-4-13-6-4-1-4-3 0-6 0-2-3 0-2-2 0-2 2-2 3-2 5-4 10-5 17-7 2 3 4 5 5 9 0-5 3-8 4-12 1-5 1-5-4-4l-2-1c1-2 4-3 0-5-2-1-1-4 0-5 2-2 2 1 3 2s2 1 3-1 2-4 0-6l-3-5c-1-1-2-3 0-4h5c2 1 3 5 5 3s1-5-1-8c0-1-2-1-2-3 1-3 0-5-4-5-5 0-4-5-5-8v-3l-1 3c-4 0-7-4-11-2l-2-1c-6-5-7-5-14-1-1 1-2 3-3 1-2-1 0-2 0-3v-5c-2-4 0-7 2-10 3-1 5 3 6 1 1-3-4-2-5-4 0-8 2-15 6-21 5 2 5 2 4 8 2 0 2-2 3-2 2-2 5-3 6-1 4 4 8 7 10 11s3 7 2 11 1 6 4 7c3 0 5 1 8 3v97z"/><path fill="#080808" d="M123 385v-3l1-3 2-7c-3-10-12-16-17-24l-6-10v-6h4c5 6 13 8 20 9 4 3 8 5 10 9-2 3-2 5 2 7 2 1 2 2 3 5 2 7 6 9 13 8 4 0 9-1 13-3 7-3 14-5 22-5 3 2 2 5 1 7-3 8-9 11-17 12h-7c-4 1-8 2-12-1l8 5c2 1 3 3 5 3 3 0 6 0 6 3-1 2-5 5-8 4l-8-2c5-1 10 4 16 2 5 0 9-3 13-4 2 0 4-2 6 0 0 3-2 4-3 4l-15 6h-49c-4-5-4-10-3-16z"/><path fill="#626262" d="M81 393c-2 2-3 1-5 0-3-3-6-7-7-12 0-7-6-11-11-15-2-1-3-1-3-3-1-5-5-7-9-8-8-1-16-3-22-9l-2-3c-2-2-3-5-6 0h-2c-3-2-6-1-8 2l-5 2v-24c4-2 10-1 12-7 0-2 10 0 12 2 8 7 15 14 24 19l7 5c3 1 5 3 5 6-1 9 4 16 7 23l8 14 5 8z"/><path fill="#969696" d="M155 1c-1 3-3 5-6 7-3 1-5 4-6 7-3 6-2 9 4 13l2 2c2 1 3 2 2 4-2 2-3 0-4 0-5-3-9-3-12 2-2 2-4 2-7 1-4-2-9 0-10 2-3 7-10 7-15 8l-3 1c-3 5-7 5-12 4-5 0-10 0-15 2-1 1 0 1 1 2-3 2-6 2-9 2-3-6 2-7 5-9 3 0 5-2 8-4 4-4 8-8 15-6 4 2 8 1 11-1 4-3 10-4 13-9-1-2-3-1-4-2l-4-4c-2-5 5-13 9-15 5-2 11-2 15-7h22z"/><path fill="#7E7E7E" d="M1 154v-29l2-4c1-3 2-5 6-3 2 0 2-1 2-3 0-3 1-4 4-5 3-2 5-4 6-7 1-4 4-5 7-6 2 0 2 1 2 2v2c0 1-4 1-1 4 1 3 0 6-1 10l-3 9h-3l-3-5-4 8c0 3-2 7-4 11s0 8 3 12c2 2 6 3 9 1h2l13 14v4c-1 2-4 1-6 2l-2 1c-1 1 0 2 1 3l15 10v3c-7 3-13 2-17-5s-11-10-17-14c-4-2-8-4-8-10 0-2-1-3-3-5z"/><path fill="#ADADAD" d="M401 149v52l-4 2-2 1c-4-1-8-4-10-7-4-5-10-6-15-8-2 0-4-1-5-4l1-3 7-1c-1-5 0-10-2-15-2-2 1-3 3-4 6-5 14-7 20-12 2-1 4-2 7-1z"/><path fill="#A7A7A7" d="M401 38c-5-1-9-3-15-1 2-6 2-8-4-10-4-2-6-7-12-6l-1-1c3-5-3-8-3-12 0-1-1-4-3-2-1 1-5 1-3 4 1 2 2 3 0 4s-4 0-5-1c-2-4-5-6-10-7-4 0-1-3 0-5h53c3 0 3 0 3 3v34z"/><path fill="#4A4A4A" d="m123 385 3 16h-18c0-4-5-3-6-6l-3-2c0-6-3-8-8-9-9-2-11-13-10-20 1-2 2-3 5-3 10 0 19 3 26 11l8 8 3 5z"/><path fill="#ADADAD" d="M279 401h-10l-5-7-2-4c-1-2-2-5-5-5-4 0-5 3-6 6-1 2 0 5-4 4-2-1-2-2-2-4 0-3-2-6-5-8-2-1-3-3-3-5 2-3 4-1 6-1 0-5 0-5 6-10l-15-5c-4-1-4-2-2-5l4-6c5-1 9-1 13 2 2 2 1 5 3 7l17 12 8 2c3 1 5 4 9 4l1 2v3l-3 1-5 1 4 1h2c2 4-2 4-3 7l-1 1c-3 1-4 2-2 5v2z"/><path fill="#B7B7B7" d="M401 365v33c0 2 0 3-3 3h-15c-8-4-7-12-9-19-1-4 2-6 5-10l10-11c7-3 7-3 12 4z"/><path fill="#878787" d="M133 1c-1 3-3 6-7 5h-3c-1 5-4 3-7 3-3 1-7 12-5 15 1 1 3 3 6 3 1 0 2-2 3 0 0 2-1 2-2 3-3 5-9 6-14 9-4 3-9 2-14 1-6-2-8 3-12 6-2 2-4 4-7 4 0-5 5-7 8-11 3-5 7-7 11-11l2-2 2-3 1-1 5-4 1-1 16-16h16z"/><path fill="#7E7E7E" d="M1 376c6 0 10 2 15 4l20 7c4 1 9 2 11 7 2 3 6 2 8 2 5-1 7 1 9 5H50l-18-10-4-2h-4c-2 2 0 3 1 4 0 3 2 5 0 8H4c-3 0-3 0-3-3v-22z"/><path fill="#1C1C1C" d="m401 149-5 2c-5 1-7-1-9-5-2-3-4-5-8-5-3 1-4 2-4 5-1 4-2 9-5 12-2 0-3-1-2-2 1-6-6-11-3-18 1-1-2-4-3-6-2-4 0-4 2-4-3 1-3-2-3-4 0-3 3-1 4-2-4-1-5 2-6 5 0 6-3 9-9 9-2-2 0-4 0-6 1-3 4-6 2-10v-2c2-2 4-1 5-3h2l1 1c3 2 6 0 9 2l9 7 18 17c2 1 4 2 5 5v2z"/><path fill="#B1B1B1" d="M370 65c3 6 7 11 13 14h2c3-6 6-6 12-3l4 1v36l-4 1c-3 1-5 2-7-1-2-2 0-4 1-6 1-1 2-2-1-3-1-2 0-4 1-5 2-3 1-4-1-5-12-5-19-14-25-25v-4h5z"/><path fill="#A7A7A7" d="M390 104c2 0 3-2 5-1l-4 6v4l3 1 7-1v34l-24-20 1-2c-4-3-4-3 0-7l2-2 10-12z"/><path fill="#6E6E6E" d="M1 154c3 1 5 3 5 6 0 2 0 4 2 5l14 8 6 6c3 6 9 11 17 9 2 4 0 7-3 11-4 0-7 0-9 4 0 1-1 2-2 1-1-3-4-4-5-8-1-5-5-10-5-16l-3-1c-6 1-9-4-11-8-1-2-3-4-6-4v-13z"/><path fill="#B1B1B1" d="M238 376c0 4 0 6 3 7 4 1 5 3 5 7l1 5c1 2 2 3 0 6h-31c-2-3-4-6-1-10 5-1 9-1 10-6 0-1 1-2 3-2l3-3c0-5 1-5 7-4zM395 203h6v25l-10-3c-3-1-5-3-4-7 3-6-1-10-4-14l-6-7c-2-2-4-2-6 2-1 1-1 4-4 2-2-1-2-3 0-5 3-3-2-3-2-5v-1c8-1 14 2 19 8 3 3 6 5 11 5zM380 372c0 2-2 3-3 4-2 3-3 6-1 9l1 4c0 4 0 8 5 9l1 3h-28c-1-2 0-3 1-5l9-9c3-4 3-5-2-8l-4-3c0-2 0-3 3-2 1 1 3 2 5 0 1-2 3-2 5-2l6-1 2 1z"/><path fill="#0F0F0F" d="M175 401c2-5 8-4 11-6l7-3 2-2c2-1 4-1 5-4s5-4 6-8v-2l2-3 3-5h6c3 4 0 7-2 11-3 5-7 10-12 13l-4 4c-2 2-3 4-6 5h-18z"/><path fill="#A7A7A7" d="M247 401v-6c3-1 3-4 4-7l5-5c3 0 5 2 6 4l7 14h-22z"/><path fill="#C1C1C1" d="M1 113c3 0 5-3 6-5l26-26 19-20 3-1h1l-1 4-1 2c-2 2-3 4-6 5-1 1-3 2-3 4l-3 4-5 4-3 3-13 14-15 14c-1 1-2 3-5 2v-4z"/><path fill="#6E6E6E" d="M1 117c5-1 7-6 10-9 6-6 13-11 18-18 1-1 2-3 4-3 3 2 2 4 1 6v2l-4 2c-4 2-8 3-9 9l-4 4c-3 2-5 3-4 7 0 2-2 4-4 2-4-2-4 0-4 3 0 2-1 3-4 3v-8z"/><path fill="#878787" d="M25 401c0-3 0-6-3-9l-1-3c1-2 3-2 4-2l5 1c7 4 14 7 20 13H25z"/><path fill="#A7A7A7" d="M198 396c0-3 2-5 4-6 5-2 9-6 12-11h3c4 2 5 3 3 7l-4 5c-2 1-2 2-1 4l1 6h-10c-2-3-6-3-8-5z"/><path fill="#B7B7B7" d="M359 376c3 0 6 4 9 3 1 0 2 1 1 2l-4 8c-5 3-7 7-10 12h-9c0-4 3-5 6-7 4-3 8-5 4-11-1-2 0-5 3-7z"/><path fill="#A7A7A7" d="m401 75-13-7c-2-2-5-4-8-4-1 0-3 0-3-2 1-2 2-2 4-2 6 1 13 4 20 2v13z"/><path fill="#B7B7B7" d="M279 401v-2c0-2 0-4 2-6 7-4 14-1 21 3l-1 5h-22z"/><path fill="#A1A1A1" d="m207 1-2 2c-4-1-4 2-4 6-5-1-10 2-16 0-2-2-5-3-4-8h26z"/><path fill="#B7B7B7" d="M385 335c0-1 0-3 2-4l3 2c3 4 6 6 11 3v7l-5 2-5-2c-3-2-6-3-6-8z"/><path fill="#B1B1B1" d="m401 365-3-1c-1-4-5-4-9-3h-1c-1-2 0-4 2-5 3 0 4-1 5-3 2-1 3-3 6-1v13z"/><path fill="#A1A1A1" d="M401 352c-2 0-3 0-5 2-1 1-2 3-5 3v-2c4-4 2-7-1-10l1-3 4 2c2 2 4 1 6 2v6z"/><path fill="#969696" d="M197 396h2c4-3 5 1 7 5h-13l4-5zM283 1l1 2c2 2 0 4-1 5-2 2-3 0-4-1-2-1-3-3-3-6h7zM181 1c-1 3 3 5 4 8-6 0-8-5-13-8h9z"/><path fill="#C1C1C1" d="M117 1c-4 7-10 11-16 16 1-4 5-6 7-9 2-2 5-4 6-7h3z"/><path fill="#626262" d="M93 401c-1-4-2-7-7-7l2-3c2 2 5 1 6 4l1 6h-2z"/><path fill="#B7B7B7" d="M304 401c3-4 7-4 9 0h-9z"/><path fill="#B1B1B1" d="M401 346c-2 1-4 1-6-2l6-1v3z"/><path fill="#B7B7B7" d="M401 203h-4c0-2 2-2 4-2v2z"/><path fill="#C1C1C1" d="M286 265c0 2 1 2 2 3 8 7 8 11 1 19l-1 1-6 7v4c3 2 3 5 4 8l1 1c1 1 1 3 3 1l1-1c1-2 3-2 5-2 1 4 2 8 8 7 2 0 4 2 6 4l3-1v-2c-1-4-4-6-7-9-2-1-2-3-2-5 2-3 1-7 1-10 0-4 2-5 6-4 5 1 7 5 11 7v4c-2 4 1 3 3 4 5 1 10 2 14 5 2 1 2 2 0 4s-1 3 1 4c3 2 7 2 8 6 1 1 3 1 2 3l-4 2-10-2-4-1c-1 1-3 1-3 3l2 2c2 1 6 0 6 4s5 9 0 13l-2 3-2-3c-1-3-4-4-6-3-3 2-3 5-1 7 2 3 4 5 8 3l2 1c1 1-1 1-2 2l-2 5c1 2 3 2 5 2l3 1 2 2-3 2h-8c-5-3-12 1-17-4-1-1-4 0-6 2 3 2 6 4 9 4 7 0 11 4 17 6 3 1 4 6 8 7-2 2-3 5-5 5-6 1-11 0-17-2-4-2-9-2-15-3l-2 1c-5-3-9-5-12-9l-2-4c-2-5-1-6 4-10l-4-1c-4-2-7-4-6-9 0-2-1-2-3-3-5-1-9-3-10-9l-2-4-1-2 1-1 3-2c6-2 7-12 2-16-2-3-5-3-7-3-2-2-3-5-6-1l-8-2c-1-3-1-4 1-6 3-1 6-1 8-3 3-3 3-4-1-6l-5-2c-2 0-2-1-2-3s1-3 3-3c1 0 3 0 4-2 1-1 0-1-1-1l-3-1-5-1-4-4c-5-2-10-3-12-8v-3l1-2c7-2 9-7 10-13 1-5 2-10 6-13l5-1c2 2 2 4 1 5l-2 7c-2 3-5 6-5 10 1 3 2 1 3 0 3-1 4-3 8-3 2 1 4 3 7 3l3 4v2c3-5 6-1 9 0l5 3z"/><path fill="#C1C1C1" d="m361 366-2-5-3-4c-1-2-5 0-5-3 0-8-6-15-2-23 1-2 2-3 4-3 4 0 7 1 10 3 4-1 7 2 11 2v1c-1 7 5 11 9 17l-1 2c-4 4-10 5-16 2 1 4 1 8-2 11h-3z"/><path fill="#282828" d="m367 182-1 3c0 2 1 4-1 5l-1 1a1877 1877 0 0 0-6 23l-3 10a317 317 0 0 1-4 9c-2-2-2-4-2-7l11-37c1-6 2-12 5-18 0-1 1-2-1-2l-1-1c-1-2-2-4-1-6 7 1 9 4 8 10l-3 10z"/><path fill="#4A4A4A" d="m340 236-28-20v-1l4-1 7 3 2 1 16 8c4 1 6 4 9 7 1 3 0 5-2 6s-3-1-4-2l-4-1z"/><path fill="#B1B1B1" d="M262 254c-4 0-6 3-8 4-1 1-4 4-4-1 4-4 8-6 13-8l5-5 2-1c2 3-2 6 0 9 2 1 0-4 3-1 2 3 5 6 8 2 2-2 4-2 5 0s1 3-1 4 0 2 0 3c1 2 2 3 1 5l-5-2-3-2c-2-2-5-3-7 0-2-1 0-3-2-5l-2-1-2-2-3 1z"/><path fill="#383838" d="M340 236c4-3 5 0 7 3 1-2 3-3 3-6h2c0 2 1 3 3 4l15 12c-11-2-21-5-30-13z"/><path fill="#B1B1B1" d="M374 334c-4 0-7-1-11-3l-1-6c-1-1-2-2 0-3 1-2 2 0 3 0a2135 2135 0 0 1 20 13c0 4 4 4 6 7v3c-2 1-3 0-5-1l-5-5-7-5z"/><path fill="#383838" d="M284 244c-2-3-5-2-9-2l-1-4 3-4c2-5 5-10 9-14l1-1 2 1v4c-1 3-1 6 1 10-1 4-5 6-6 10z"/><path fill="#B1B1B1" d="m385 281 5-1c3-2 4 0 4 3l-3 8c-2 2-3 4-2 7l-1 3-2-1c0-4-4-7-4-11 0-3-1-6 3-8z"/><path fill="#B7B7B7" d="M361 366h3l1-1c6-5 6-5 12-1h6c1 2 0 4-2 5l-2 1-1 2c-1 2-3 3-6 2h-5c0-4-5-4-6-8z"/><path fill="#151515" d="m270 243-2 1-2-2c-4 0-7 1-9-2l1-5v-5l-1-4-1-1 1-2c5 1 8 4 11 8 1 3 4 5 4 8l-1 2-1 2z"/><path fill="#B7B7B7" d="M302 381h3c-1 4-5 7-10 6-1-1-3-2-4 2-2 1-4 0-6-2h-1v-4h2c2-1 2-2 2-4 5-2 9 0 14 2z"/><path fill="#B1B1B1" d="M287 287h2l4-2h2l1 2c-5 5 0 9 0 15-1 1-3 2-5 1-3-2-7-4-5-9l1-1 2-1-2-1v-4zM285 387l6 2c3 0 5 3 8 3l2 1c1 0 3-1 4 1 0 2-1 2-3 2-7-2-13-5-21-3 0-3 3-3 4-6z"/><path fill="#A1A1A1" d="M306 217c0 4-1 7-3 10-2 1-4 3-4 7 1 4-3-1-5 0v-2c1-3 1-6 3-8l1-1c4-1 3-4 4-7l4 1zM284 245c0-5 2-7 5-10l2-2 3 1v4l-1 2-9 5z"/><path fill="#202020" d="M271 239c1-3-5-4-3-7l4-1 1 1 3 4-1 5h-3l-1-2z"/><path fill="#282828" d="M306 217h-4l-1-2 2-3c3-1 6 1 9 2v1l-6 2z"/><path fill="#A7A7A7" d="m290 303 6-1v4l-5 2c-3 0-3-1-1-5z"/><path fill="#ADADAD" d="M391 244c0-2 2-3 3-1 2 1 5 3 1 6l-2-2-2-2v-1z"/><path fill="#B1B1B1" d="M385 236v-2c-1-1-3-2-1-3l1-1c2 1 2 3 2 4l-1 2h-1z"/><path fill="#B7B7B7" d="m301 393-2-1c1-1 2-1 2 1zM391 245c1 0 2 0 2 2-1 0-2 0-2-2z"/><path fill="#383838" d="m271 239 1 2h-1v-2z"/><path fill="#C1C1C1" d="M79 39c-1 5-6 6-8 11-3 1-5 3-7 6v2l-2 2h-1l-5 1c0-6 6-7 9-10 4-5 8-9 14-12zM90 28c-2 5-7 7-11 11 0-3 1-4 3-5 2-3 4-5 8-6zM100 18c-1 2-2 3-5 4 0-3 2-4 5-4zM94 23l-1 3c-3-2-1-2 1-3z"/><path fill="#080808" d="m42 199 3-11 1-3 2-4c3-1 6 1 9 1l6 2 2 1 5 2 1-1c3 0 6-1 7 1 2 3-2 4-4 6-4 2-5 5-3 10 1 2 1 5-1 6-3 1-4-2-6-3-2-3-2-6-1-8 0 10 0 21 2 32s4 23 9 33l1 3c5 3 6 8 8 13l2 3c-1 10 5 20 4 30-3 3-5 1-6-1-5-6-11-10-16-17l-13-16c-4-4-8-9-7-16l-1-5-6-36c-1-7 1-14 2-22z"/><path fill="#6E6E6E" d="m68 293 19 20c7 6 13 11 16 19 3 10 8 19 16 26 5 3 6 8 7 14-3 0-3-3-5-4-3-3-7-5-11-6-5-1-8-5-12-9-5-3-6-9-10-13l2 3c0 2 2 4 0 5-2 2-4 0-5-1-5-6-12-8-17-13l-2-2-7-9-7-8c-3-6-6-12-12-16-3-3-3-6-3-10 0-2 1-3 3-4l3 2c1 1 2 3 4 0 6-1 10 3 15 5l3 3c1-1 0-3 3-2z"/><path fill="#626262" d="M68 293c-3 0 2 5-2 5-3-1-3-4-5-5l-14-6c-1-5-2-9-5-14-3-4 1-8 5-11 2 9 8 16 14 22l7 9zM25 265c8 6 8 6 1 13-3 4-7 4-9-1l-5-14c-1-2-2-4 0-5 2-2 3 0 5 0l8 7zM68 334c6 3 12 6 16 11l1 1c1 1 3 3 4 1 2-1 0-2 0-4l-4-3v-2h2c3 2 6 6 7 10 1 2 4 2 4 5-6 2-10-3-14-5-6-3-13-7-16-14z"/><path fill="#4A4A4A" d="M124 379v2-2z"/><path fill="#626262" d="M66 332c1 0 2 0 2 2-1 0-2 0-2-2z"/><path fill="#B1B1B1" d="M281 29c4-1 6-4 7-7 2-4 4-6 8-5h12c3 0 5 1 7 3 1 2 1 4-1 5-3 0-4 2-6 3-4 1-3 2 0 3 5 2 7 6 6 11 0 4 2 5 5 3 3-1 6-3 5 3 0 1 1 2 3 2l2 1h3c1-1 3-1 3-3l-2-1-4-1c-1-2-4-3-2-6 1-2-2-3-3-4l-5-4-1-3c5-1 0-8 5-8 2 0 5 1 6 3 2 6 7 5 11 4 3-1 5-1 5 3l1 2c-1 6 3 9 8 9 0-5 0-5 6-3 6 1 11 5 18 6 3 0 8 2 6 6-1 3-6 3-10 2-2 2-3 1-5 0h-5l-4 2 2 4c2 1 4 2 3 5-3 1-5-1-8-2l-6-2 6 9c1 1 2 3 0 5-1 2-3 1-5 0l-9-4c-5-1-7-4-6-12-1 1-2 4-4 4-3 0-4-3-5-4-3-4-6-8-12-6l-6-2c-3-2-6-3-9-2 1 1 3 3 1 5-1 2-3 1-5 1-9-1-19 1-30-2l3 12c0 5-3 7-7 4-3-2-6-4-9-1-2 1-3-1-4-2-3-4-5-4-10-1-2 1-5 3-8 1 2-5 5-11 12-12l7 3c-2-3-6-4-5-8l1-1c3-2 6-3 8-6 4-4 6-4 10 0 4 3 8 3 13 2-5-7-4-10 1-14h2z"/><path fill="#0B0B0B" d="m137 80 8-1c1 3 3 4 6 4h8c5 0 7 1 9 7 1 5 4 9 11 9 2 0 3 2 3 4l2 6c4 5 9 4 13 7 3 1 4 2 5 5 2 6 7 9 11 14 1 2 2 1 3-1l2-5c1-3 0-6 4-8l3 1 1 3-4 9c2-3 4-5 8-3 1 4 0 7-2 10l-7 6c-2 2-4 3-6 0l-8-7-11-13-2-1c-7-1-10-5-14-10h-2c1 3 2 6 5 8l9 10c4 3 7 6 7 11l3 6 3 3c1 2 4 4 2 6-2 3-4 0-6-1h-7c-3 0-5-1-5-4l-2-6c0-2-1-3-2-3-2 0-3 1-3 2-2 6-8 8-11 13h-5c2-4 1-9 3-14 1-4 1-9 3-13 1-1 0-2-1-3-3-3-9-2-12 2l-1 1h-2c-2-2-2-5-2-7v-5c1-4 5-3 7-4-2-3-5-3-9-3-4-1-5-5-7-8l-1-5-1-1v-6l-3-5c0-2 1-2 3-3l-6-5v-2z"/><path fill="#ADADAD" d="m170 73-10-19v-2c6-1 10 2 14 7l8 6c2 0 5 1 6-2 1-2-1-4-2-5l-3-2c-3-2-4-3-2-8 4-5 9-7 12-12l1-1c2-1 15 4 16 6 0 4 3 5 6 7 2 2 3 4-1 5-2 1-5 3-6 6 3 0 6 0 9-2 2 0 2-3 4-5 4-3 5-3 6 2 3 6 0 9-4 12l-4 4c-3 4-4 6-10 4l-11-2-3 2 1 3 4 3c3 2 7 3 4 7-1 2 1 2 3 2 2 4 0 7-1 11h-6l-1-2-1-3c-1-1-1 1-3 1-3 1-5-2-7-3l-11-7-3-2-2-2c1-3-1-6-3-9zM279 29c-1 2-4 4-3 7l2 5c1 0 3 0 3 2l-4 2c-5 0-10 1-14-4-2-3-4-2-6 0-2 4-5 6-10 6l4-6c-3 1-5 2-6 4-2 3-5 3-6 1-3-4-10-4-10-11 0-2-2-2-4-2-3 0-4-4-7-4h-1c0-4 4-5 5-8h3l12 4 4-1c2-4 5-6 10-7 3 0 6-4 11-3 2 0 4 0 6 2 1 3 0 5-2 8-2 1-4 3-2 5 1 2 3 1 5 0 3 0 6-2 10 0z"/><path fill="#151515" d="M177 85c7 2 12 7 18 11l1 1c1 4 4 6 10 7 4 1 6 4 9 6 2 2 1 6 6 4h3l1 1 5 3 2 5c2 5 1 10 1 15-3 4-3 10-8 12-4-3 0-6 2-9s2-6 2-10l-4-6v-2l-2-1c-4 0-2 4-4 7-5 2-9 1-11-3l-15-20-2-2c-3-2-5-2-5 2l-2 5c-3-2-2-4-3-7-1-2-1-6-5-3l-1 1c-2-4-8-5-8-10-1-6-2-8-9-8h-9c-6 2-5-1-4-4 8-3 16 0 24 1 2-1 3 0 5 1l1 1 2 2z"/><path fill="#B1B1B1" d="m206 100 2-11c2-4 5-6 8-9 5-4 9-11 15-15 2 7 1 9-3 13-4 3-4 3-7 12 6-1 11-4 16-7 2-1 2-3 2-5 1-2 2-3 4-3l3 2c1 4 4 8 4 13-3 4-4 10-6 14-4 1-4-2-5-4s-2-3-4-1l-5 2c-2 0-5 0-5 4 0 2-2 3-4 2-2-3-4-3-7-2-3 2-5-1-8-3v-2z"/><path fill="#969696" d="M185 9c3 0 7 1 10-2 1-2 3 3 6 2v4c-2 2 2 5-1 7l-15 5c-2 0-2-1-3-2 0-2 1-3 2-3 6-3 4-6 1-11z"/><path fill="#878787" d="M97 58c7-1 12 2 19 5l5 4 3 1c3 1 5 2 6 6l-2 2-4-1-1-1c-4-3-7-5-12-6l-5-2c-1 0 0-2-1-1h-2l-3-1-5-3c-1-1-2-2 0-3h2z"/><path fill="#383838" d="m128 75 2-1 2 2 4 3h1v3l1 3v4l-1 1-4 3h-3c-1-4-6-6-1-10 1 0 0 0 0 0-3-2-2-5-1-8z"/><path fill="#A1A1A1" d="m174 82-5-1-1-3c-2 0-4 1-4-2 1-3 3-3 6-3 3 2 6 4 4 9z"/><path fill="#ADADAD" d="M246 48c1 3 4 5 6 7 1 0 2 1 1 2h-2c-2-1-5-1-7-4l2-5z"/><path fill="#A1A1A1" d="M160 52v2c-1 0-2 2-4 0v-2h4z"/><path fill="#878787" d="M136 78c-2 1-3 0-4-1 2-1 3-1 4 1z"/><path fill="#A1A1A1" d="M124 68c-1 0-2 1-3-1 1-2 2-1 3 1z"/><path fill="#A7A7A7" d="M365 64c0-2-2-3-4-4-1-1-4-2-3-4s3-5 6-5c3-1 6 2 10 2v8c2 2-2 2-4 4h-5v-1zM329 46h4c2 2 1 4-1 6h-3l-2-2c0-1 0-3 2-4z"/><path fill="#202020" d="m100 63 3 1 2 1h1l5 2 12 6v1l1 3-1 1c-3 2-3 6-7 7l-2 1-2-3c0-2-1 0-2 0l-1 1c-3-1-6 0-9-2-2-3-1-5-1-8 1-3 0-3-3-3l-2 1c-4 1-7 1-10-3h-2c-3-1-6-1-7-3s-3-3-5-2h-8c-3 0-2-2-1-5l3-1c3 0 6-2 10-1h3l5 2 5 1c4 0 9 0 13 3z"/><path fill="#969696" d="M160 10c4 0 5 1 4 4-2 4-6 7-10 8-1 1-2 0-3-1s0-2 1-2l1-2c-1-6 5-4 7-7z"/><path fill="#6E6E6E" d="m100 63-13-3 6-3c1-1 2 0 3 1 0 1-3 1 0 2l4 3z"/><path fill="#4A4A4A" d="M74 57c-3 1-6 2-10 1v-1a127 127 0 0 1 10 0zM82 59c-2 0-4 1-5-1 2-1 3-1 5 1z"/><path fill="#969696" d="m96 58-3-1c2-3 3-1 4 1h-1z"/><path fill="#B1B1B1" d="M373 221c0-5-1-9-6-12-1 0-3-1-1-2 1-2 2-2 4-1l2 3c2 3 4 6 8 5 2 0 4 3 2 5v7c-4-1-6-3-9-5z"/><path fill="#BCBCBC" d="M381 306c3 0 5 1 4 4-1 2-3 0-4 0l-3-1c-2 1-3 0-4-1v-3c1-2 3-1 4 0l3 1z"/><path fill="#B1B1B1" d="M358 215v-3l5 1 3 2-2 3h-3l-3-3z"/><path fill="#0F0F0F" d="M103 332c-4-7-11-12-15-18-2-7 0-14-4-20v-7c0-3 1-7-4-9 1-5-5-8-7-11l-9-31-3-30c-1-5 1-9 2-14 2 6-1 13 6 16l1-4c-4-10-2-8 4-13 1-1 4-1 3-3 0-2-3-1-4 0h-3c-2-4 1-5 4-5 2 0 4 0 6-2 2 0 3 0 5 2l1 13c1 3-1 5-3 6-4 1-5-1-7-4v3l4 4c4 4 3 4-1 6 3 4 7 4 11 2h6l13 7c2 1 3 2 2 4h-4c-7-3-15-5-23-4l-4 1c4 6 5 13 6 20 0 3 2 4 4 5 3 1 6 2 8 1 5 0 9 2 14 4 1 0 3 1 2 3 0 2-2 2-4 2-4-2-7 0-11 0-3 1-6 2-6 6 0 3-2 4-6 5l10 3c4 0 5 3 6 6 0 7 3 14 6 20 5 7 12 8 20 8 3 0 4 0 5 4 0 4 4 6 6 9 2 2 5-1 7-2l8-8h2c1 3 0 5-2 8-4 2-6 6-10 7v2c2 2 2 6 5 8l1 3c-4 5-9 7-15 8-3 1-5 1-8-1-9 0-16-2-22-9l-3-1z"/><path fill="#151515" d="m254 300-3 4 1 3-1 1-5 8-14 13c-6 4-11 9-10 17-2 3-3 6-6 8-4-2-4-5-2-8-2 1-4 4-7 4h-3l-7 3c-3-1-5 1-7 3 4 2 7-3 11-1-1 5-4 7-11 8-12 0-22 6-33 9h-9c-1 0-8-8-8-10 1-3 0-3-3-4-5-3-5-5 0-8 3-1 5 1 8 2l6 2 4 1c6-1 11-4 15-7a316 316 0 0 0 34-28c6-2 11-7 16-9 2-1 4-3 6 0 2 4-1 6-2 9l-9 14 12-19 6-10c2-2 3-3 6-2 2 1 4 3 3 6l-3 5 10-17c1-2 2-5 6-3l-1 6z"/><path fill="#0B0B0B" d="M190 363c4-2 8-3 11-8 1-3 3-4 6-6 3 0 4-3 6-4 1-1 2-2 3 0 1 1 0 1-1 2-2 2-2 4 0 6v2c-4 2-5 5-5 8l-1 8c-10 7-21 12-32 15h-9l-2-1v-5c6 0 11 0 17-3 4-2 8-8 7-14z"/><path fill="#202020" d="m195 391-2 1c-4-2-8 1-12 2l-7 2c-1-4 3-3 5-6 3-1 5-3 6-5 2-3 5-4 8-4l5-2 8-2c1 5-2 6-5 9-1 2-3 4-6 5z"/><path fill="#0F0F0F" d="M180 391c-1 3-5 2-6 5-4 1-7 2-10-1-3-2-7-2-10 2 0-4 0-5 4-5 4 1 8 2 11 1 2 0 4-1 4-3-1-2-3-1-5-1v-4h9c1 2 4 2 3 6z"/><path fill="#6E6E6E" d="M151 355c-5 0-9-3-14-5-3-3-7-4-9-8h8c3 2 7 3 9 6 2 2 4 1 6 1 2-1 5-1 6 3l-1 1c-1 2-3 2-5 2z"/><path fill="#383838" d="M137 386c0 1-1 3 2 4h2c0 6-1 6-5 3-3-1-7-1-6-6l1-1c2 1 2 0 3-1s2 0 3 1z"/><path fill="#0F0F0F" d="M166 380v5h-3c-4 1-6-2-9-3l-1-3h3c3 2 6 2 10 1zM151 379c-3 4-7 3-10 3l-2-1 1-2c4 2 7-5 11 0z"/><path fill="#282828" d="M132 387h-2c-1-4 4-4 4-7 2 2 4 3 3 6l-3-1-2 2z"/><path fill="#151515" d="M163 385h5v4c-3 0-4-1-5-4z"/><path fill="#282828" d="M141 390h-2c0-1 0-2 2-2v2z"/><path fill="#151515" d="M33 95v-1c1-1 2-4 4-4l2 1 4 7c0 2 1 2 3 1l2 1c2 1 3 2 3 4 0 4 3 4 6 3h7l1 1 1 3c-5 5-1 7 2 10l3 2c-1 3 2 3 3 5l3 4c3 4 3 6-1 8l-4 2-3 3c2-3 5-4 9-4 2 0 3 0 3 2 1 1 0 2-1 3-3 2-4 5-7 6l-1 1-2 3c-1 3-1 5-3 7-3 3-1 6-2 10-3 3-7 2-11 2-1-1-2-1-2-3 5-2 8-6 7-12 0-3-2-6-6-4l-7 2c-3 0-6-1-6-5 0-3 2-5 6-5l6-2c2-2 4-5 7-5 3-1 3-4 3-6 1-2-1-3-2-3l-4-2c-4-1-4-2-2-5 3-4 2-6-3-7-4-1-9 1-12-5 0-2-2-1-3 0-2 3-3 6-2 9 0 2 0 4-3 5-4-3-3-7-2-11v-1h-2l2-10v-4l1-2 3-4z"/><path fill="#878787" d="M22 124h1c1 8 4 15 1 23v4c-2 3-8 3-11 1-4-5-5-11-2-17 2-2 3-5 3-8 1-5 3-8 6-12-2 4 5 5 2 9z"/><path fill="#282828" d="M38 169c0-2-1-4-3-5-3-4-7-7-9-13v-4c1-3 1-5-1-7-2-4 0-6 6-9 3 4 3 9 3 14-1 12 6 19 14 25l1 4-1 1c-4 0-8-2-10-6z"/><path fill="#878787" d="M38 169c3 2 6 5 10 6l1 3-1 4-2 3c-7-2-13-7-18-11-1-1 0-5 2-4 2 0 5-2 8-1z"/><path fill="#585858" d="M31 131c-3 1-3 4-5 6-2 1 1 3 2 4 1 2 3 3-1 5l-1 5h-2c-1-2-4-3 0-6v-7c-1-4-2-9-1-14h1c2-1 3-1 4 1 0 2 2 2 3 3v3z"/><path fill="#282828" d="M31 128c-2 0-6 2-4-3l-2-1c-1-3 1-6 2-9 2 0 2-1 3-2-1 5-1 9 1 14v1z"/><path fill="#6E6E6E" d="M29 101v4c-2 0-4 1-4-1s2-3 4-3z"/><path fill="#383838" d="M32 95c1 1 0 3-1 4l-2-2c2 0 2-2 3-2z"/><path fill="#202020" d="m369 157 2-1c-1-5 4-8 2-13 0-2 0-3 2-2l2-1c5-1 9-1 11 4 1 4 4 5 7 7l-20 11c-2 1-5 2-7 0-1-2-1-3 1-5z"/><path fill="#B7B7B7" d="M368 161c2 3 4 1 7 1-4 2-4 5-1 8v5c-1 3-2 6 3 7h-10l1-5c2-8 2-10-6-15h-1l-2-2c-1-1-2-3-1-5 5-1 7 3 10 6zM365 191l1-6c1 2 2 3 4 3l15 6 2 4c1 3 5 3 8 5-4 2-8 1-10-3-4-5-9-7-15-9h-5z"/><path fill="#A1A1A1" d="M392 187h-4c-2 0-3 0-3-2l2-3h6c2 0 5 1 4 3 0 3-3 3-5 2z"/><path fill="#969696" d="M379 15c-2-1-3-2-1-3 1-1 3 0 4 1 0 1 2 2 1 3 0 2-1 1-2 1l-2-2z"/><path fill="#A1A1A1" d="M221 346c-2-9 3-14 9-18 6-3 10-8 15-13l13 8c1 2 3 3 3 6-2 3-2 5-1 8 2 5-3 8-8 8l-18-5h-2c6 3 13 7 21 6 2-1 5 0 6 3l1 2c-2 3-4 5-8 5l-3-2c-4-2-8-2-13-2l-6 4c-4 1-6-1-9-4v-6z"/><path fill="#BCBCBC" d="M259 351v-1c3-3 4-6 4-10 1-2 3-3 2-5v-2l3-1c3 2 4 4 4 8 1 3 5 5 8 5 4 0 6 0 4 5-2 4 3 5 6 7l4 1c1 0 2 0 2 2l-2 2c-2 0-5-1-5 1 0 3 1 6 3 8 2 4 7 6 10 10l-14-1h-1l-1-1c-2-2-3-5-3-7-1-4-4-7-6-11-4-4-8-6-13-5-3 0-7 1-5-5z"/><path fill="#B7B7B7" d="M259 351c0 4 1 5 4 4 6-1 10 1 15 5 5 6 5 12 8 19-3 0-7 0-9-4-3-4-9-5-13-8-5-3-11-6-13-12 3 1 5-2 8-4z"/><path fill="#A7A7A7" d="M221 351c4 3 7 6 11 1h4l-1 4c-6 5-2 5 2 6l12 3c1 0 2 0 3 2l-2 2c-3 2-8 2-4 8 1 2-2 2-3 2l-5-2c-4-7-10-12-17-16-2-3-2-5-1-8l1-2z"/><path fill="#B1B1B1" d="M251 355c4 5 8 8 14 11l11 5 1 4-6-1c-4 0-8-1-10-6l-3-2c-6-1-9-5-9-12l2 1zM284 383v4h-1c-2 0-6 1-6-2 0-4 4-1 7-2zM281 393c0 2 0 4-2 6-2 0-3-2-3-4 1-2 3-2 5-2zM287 380h1c1 2 1 3-2 3l1-3z"/><path fill="#A1A1A1" d="m380 369 3-4 1-2 1-2h4c-2 4-5 8-9 11h-2v-2l2-1z"/><path fill="#B7B7B7" d="M365 64v1l2 5c5 8 11 15 18 21l5 1c5 2 5 4 2 7l-2 5c-2 5-5 8-9 12-4 2-8 0-12 3-2-1-4-2-7 0-2 1-2 0-2-2-1-6 1-9 6-9h6c6-1 8-3 7-9-4 4-10 5-15 3h-7c-3 0-5 0-5-4 0-3-1-4-3-3-6 0-12 1-18-3-2-1-4 1-7 2-3 0-8-1-11 2l-2 2c-4-1-3 1-3 4l-5 1-4 3c-1 2-3 4-6 4-3-1-4-4-5-7 1-1 2-2 3-1 1 0 3 1 4-2 1-1 0-3-2-4-1-1-3-2-5-1l-2 2c-7 0-11-3-13-10-1 3-1 5-3 6-2 2-5 1-7 2-3 1-5 0-8-1l-6-4c0-5-4-8-3-12l-3-2c-2 0-3 1-3 3 1 8-7 6-11 10l-6 3h-4c-1-1 0-2 1-3l1-3c0-4 1-6 4-8s7-4 5-9l1-4 9-3c5-4 8-3 11 3 1 1 2 3 3 1 3-4 5-3 8 0l3 2c2 0 4 1 3-3 0-4 0-8-2-12l-1-2h3c6 1 12 2 19 1h12c1 0 2 2 3 0 0-2-1-3-2-3s-3 0-3-2l4-1c3 0 6 0 9 2s5 3 9 2c3-1 6 3 9 6l3 3c1 3 3 2 4 0l1-3 3-1v3c-2 7-1 10 7 11l7 4h3v-3c-3-2-4-6-6-9-1 0-2-1-1-3s2 0 4 0l12 6z"/><path fill="#BCBCBC" d="M312 97c0-3 1-4 4-4l13-2h5c3 4 7 3 12 3l6-1c2 1 4 1 2 4-1 2-1 4 1 4 6-2 11 2 17 0 2 0 5 0 5-4l2-1 2 1c2 7-1 12-8 12h-4c-5-1-8 1-9 7h-1l-1-1-2 1h-2l-1 1-2 1c-6 3-11 1-16-3-6-7-14-12-22-16l-1-2z"/><path fill="#202020" d="M352 120c3 1 3 3 2 5l-4 11v2c-2 4-3 8-6 11v4l-1 3h-8c-3 0-5 1-7 4l-6 5h-2c-1-5 0-9 1-14l2-1c2 1 4 1 4-1l1-5c0-4 1-8 4-11l12-9c3-2 5-4 8-4z"/><path fill="#151515" d="m349 138 1-2c4-2 8-3 8-9 0-5 1-5 9-5-2 2-4 0-5 1 0 3 1 6 5 6h-5c3 3 2 7 6 9v1c-5 1-3 5-2 6 3 4 3 8 3 12l-1 4-10-6-10-4c-1-2 0-3 1-5 0-2 2-3 1-6l-1-2z"/><path fill="#B1B1B1" d="m353 119-7 5c-3 1-4-1-6-2-4-3-9-7-15-8-4-2-5-6-9-7l-8-6c-2-1-3-3-2-5 2-2 4 1 6 1 9 4 17 9 23 16 4 4 10 6 16 4h2v2zM369 120c2-6 7-4 12-4 0 3-2 3-4 4l-1 3 3 1c1-1 2-1 2 1s-2 1-3 1l-9-6z"/><path fill="#585858" d="M356 115h2c-1 1-1 6-5 2v-1l3-1z"/><path fill="#202020" d="M374 136v2l-2-1 2-1z"/><path fill="#151515" d="M367 126c1 2 0 1-1 1v-1h1zM365 124v1-1z"/><path fill="#B7B7B7" d="M358 116v-1h1l-1 1z"/><path fill="#ADADAD" d="M220 361c9 2 15 6 18 16-6-1-6-1-5 4 0 3-2 3-4 3s-4 0-4 2c-1 6-4 7-9 5l2-5c2-3 3-5-2-5l-2-2 4-9c0-4 0-6 2-9z"/><path fill="#202020" d="m220 360-2 9h-6c-3-2-2-3-1-5l2-5c3-3 4-7 8-7l-1 8z"/><path fill="#6E6E6E" d="M214 358c1 4-3 7-3 11l-2 4h-1l-1-2 2-7c0-3 2-4 4-6h1z"/><path fill="#7E7E7E" d="m207 377-9 4-1-1c2-4 6-4 9-6l1 2v1z"/><path fill="#080808" d="M195 391c1-3 4-3 6-5 0 4-2 5-6 5z"/><path fill="#626262" d="m207 376-1-1 1-2h2l-2 3z"/><path fill="#383838" d="M48 100h-2l-2-1-1-4c1-3 0-4-2-5-1-1-3-2-3-4l4-3c6 0 10-5 15-7 2-1 3-3 3-5s-2-2-4-2l-3-2 1-2 6-6h1c0 3-1 6 4 4 1-1 3 2 5-1 1 2 3 2 5 2 1 3 4 3 7 4 2 3 0 4-1 6 1-2 3-2 6-2 6 0 11 1 13 9 3 2 6 0 9 2 0 5 0 5-9 4 3 1 7 1 9 5 0 2-1 3-3 5-4 0-7-3-12-4-1-2-2-4-4-4-3-1-3 2-5 3-1 2-3 4-5 1l-1-5c-1-4-3-4-6-2l-7 4-2 1c-3 0-5 1-3 4 1 1 0 2-1 3-1 2-1 3-3 3l-2 1-2-3c-2-2-3-2-4 0l-1 1z"/><path fill="#282828" d="M53 67h2c3 1 7 0 7 4-1 2-1 7-6 7l-2 1c-3 2-5 6-10 4-2 0-4 1-5 3 0 2 2 2 3 3 6 2 2 6 2 10h-2l-3-7-1-1c-2 0-3 2-5 3 0-2 2-4 1-7l2-3 5-5 3-3 3-4 6-5z"/><path fill="#969696" d="M60 59c-1 3-3 4-6 6l2-4 4-2z"/><path fill="#6E6E6E" d="M40 79c1 3-1 4-4 5 0-3 2-4 4-5z"/><path fill="#969696" d="M47 72c0 2-1 3-3 3 0-2 1-3 3-3z"/><path fill="#B7B7B7" d="M388 361h-2c-2-2-2-5-1-7l-1-1h-1l-1-2c2-3 2-5 0-8-1-1-2-3-1-6 4 2 5 6 10 8 5 5 5 5 0 12-2 0-2 2-3 4z"/><path fill="#1C1C1C" d="M226 312c-1-2-2-2-4-1-6 3-11 8-18 10-1-4 3-5 4-8 5-7 10-13 14-21l5-7 1-1 3-3c2-1 3-2 1-4l-10-5-1-1 1 3-2 1-2-1-3-2-3-4 1-2 9-6c2 0 4 1 3 2 0 4 3 5 5 6 6 4 11 9 17 12l6 1c2 0 4 0 4 3l-4 2c-2 4-6 4-9 4s-3 0-5 2c-3 7-7 15-13 20z"/><path fill="#282828" d="M226 312c4-7 10-13 12-20 2-5 3-4 6-3l9-3 1 3c3 2 2 3 1 5-4 0-5 3-6 5-4 5-5 12-10 17l-2 2c0-3 2-6 3-8s1-4-2-6c-3-1-3 0-4 2l-18 28-3 4h-3l1-2c6-7 11-15 15-24z"/><path fill="#B1B1B1" d="M265 333v4c-4-1-3-5-5-8-2-5-6-8-11-10-1-1-3-1-4-4l5-7h1v-3l9 2 3 1 2 1c5 1 6 2 3 7-2 2-1 4-1 6 1 3 3 5 1 8l-3 3z"/><path fill="#383838" d="M252 282c-5 2-8-2-11-4-5-3-9-8-15-10-4-2-1-5-3-7l-1-2 1-1c5-2 7 3 11 6v1c4 4 8 6 13 8l1 3-1 1 2 1c1 1 3 2 3 4z"/><path fill="#B7B7B7" d="M268 330c0-3 0-5-2-7-2-3-2-6 1-9 3-2 2-4-1-4-2 0-3 0-4-2h3c3 1 6-2 8 3 5 4 4 11-2 18l-3 1z"/><path fill="#626262" d="M234 265c-3-2-5-7-10-7-2 1-2 0-3-1v-1l2-2 1-1 8-2 5-4c1-1 3-3 6-2 2 1 2 3 1 4-5 3-5 8-8 13v1l-2 2z"/><path fill="#A7A7A7" d="M237 262c0-5-1-10 5-13 2 0 2-2 1-4v-3l6-9h1c2 0 2 0 2 2-4 5-4 11-5 17-1 4-3 10-10 10z"/><path fill="#BCBCBC" d="M337 316c-5 3-9 3-14 3-2 0-5-7-5-8 1-2 3-2 4-1l6 1c4-2 7 0 9 5z"/><path fill="#202020" d="M266 241c2 0 2 1 2 3s-1 4-3 5l-14 8c-1-5 2-7 3-11l6-2 3-1 3-2z"/><path fill="#BCBCBC" d="M287 294c-2 2-1 3 1 5l3 4-5 5-2-1c1-3-3-6-4-9-1-4 3-8 7-11v7zM255 294v-4c2-1 9 0 10 2v2c-2 4-7 7-11 6l1-6z"/><path fill="#ADADAD" d="M252 235c0-1 0-2-2-2v-1l1-3c1-3 2-5 6-4v1l2 3-1 6h-6z"/><path fill="#BCBCBC" d="m271 329 4-9c1-4 0-6-2-9h1c3 1 5 4 4 6-2 4 2 11-7 12z"/><path fill="#282828" d="m252 282-3-3v-2h2l5 2h2l5-3c-1 4-1 7-6 8 0-3-3-2-5-2z"/><path fill="#383838" d="m261 245-6 1c1-2-1-4 1-6 4 2 7 0 10 1l-2 1-3 3z"/><path fill="#BCBCBC" d="M271 261c3-5 6-4 10 2h-2c-5-2-5-2-8 3-2-2 0-3 0-5zM262 254c0-1 1-2 3-2l3 2 1 2c-3 2-5 0-7-2z"/><path fill="#B1B1B1" d="M286 308c0-3 2-4 5-5 1 2-3 3 0 5v1h-4l-1-1z"/><path fill="#BCBCBC" d="M317 319c2 1 4 2 2 4h-3c-1-1-1-2 1-4zM265 308h-3l-2-1c0-2 1-3 3-3s1 2 2 4zM272 295h-1c-1 0-3 1-3-1-1-1 0-2 1-2s4-1 3 3zM287 309h4l-2 3c-2 0-2-1-2-3z"/><path fill="#4A4A4A" d="M251 277h-2l-1-1-1-2c2-1 3 1 4 3z"/><path fill="#B7B7B7" d="M265 333c0-2 0-3 3-3v2l-3 1z"/><path fill="#4A4A4A" d="M258 279h-2 2z"/><path fill="#A7A7A7" d="M234 265c0-1 0-2 2-2l-1 2h-1z"/><path fill="#BCBCBC" d="M377 365c-4-4-8-3-13 1 1-4 3-7 0-11l1-2h2c5 6 9 1 15 0 1 5-3 8-5 12zM381 337c1 3 1 8 6 9 2 1 0 2-1 3-1 0-3 0-4 2l-6-6c-5-3-2-7-2-11 3-1 3 3 7 3z"/><path fill="#0F0F0F" d="M351 233h-1l-9-6c-2 0-3-1-4-3 0-2 2-3 3-5 1-4 1-5-3-5-3-2-6-1-8-2h-3l-1-1-4-4-2-6c3-2 5 0 8 0 0-4 2-8 7-9 2 1 2 3 1 5v-7l2-2c6-1 4 3 5 6 0-4-2-7-4-11v-4l1-1 2 1c2 3 3 7 3 10l1 4v-3l-3-11c0-1 0-3 2-3l2 2 1 4 1 3v6l2-6v-2l10-11 1-3 1-1h2l2 2-4 17-12 40 1 6z"/><path fill="#383838" d="M364 168h-1l-8-5a12 12 0 0 1-2-1 87 87 0 0 0-3-2l-2-2-1-2v-3l1-2c3 1 8-2 10 4l2 5 1 2h1l2 6zM366 170l-2-2c1 0 3-1 2 2z"/><path fill="#0B0B0B" d="m312 215-9-3c-2-1-3-2-5-1-4 1-7-1-9-4-1-7 3-11 9-9l2 1c1 2 3 3 6 3l2 2 1 2v-2l4-2c2 2 2 4 2 7-1 2 0 3 1 5v1h-4z"/><path fill="#282828" d="M337 213h1c5-2 5 0 4 4l-1 2-7 2h-2c-2-1-2-4-5-2h-2l-2-1c-2-1-4-2-4-4 1-3 3-3 6-3h3c2 2 6 1 9 2z"/><path fill="#585858" d="M331 220h2c3-1 4 1 5 4l3 3c-2 2-3 0-4-1l-12-7h2l4 1z"/><path fill="#1C1C1C" d="m319 214 4 3c-3 1-4-1-7-2v-1l1-1 2 1z"/><path fill="#C1C1C1" d="M268 254c-1 0-2 0-3-2 1 0 2 0 3 2z"/><path fill="#4A4A4A" d="m286 220-9 14c-2 1-3-1-5-2l-8-6c0-3-2-5-1-7 2-1 3 0 4 1 1 0 2 3 3 0l1-2h2c3 1 6 2 9 1l4 1z"/><path fill="#1C1C1C" d="M286 220h-4l-5-3v-2c5-1 5-5 7-9l5 1c3 2 6 5 11 2 1-1 2 1 3 3l-1 3c-3 1-5 0-8-1-1-1-2-2-3 0v2c0 2-2 3-4 4h-1z"/><path fill="#0B0B0B" d="M291 234h-1c-6-4-2-9-1-14 3-1 6 1 9-3 4 1 5 2 1 7h-1l-5 5c-3 1 0 3-2 5z"/><path fill="#282828" d="M297 218c-1 6-4 4-8 2h-2c0-2 3-2 3-4 3-2 5 0 7 2z"/><path fill="#7E7E7E" d="m272 232 4 2 2 2-2 1-4-5zM279 237l2 1-1 1-1-2z"/><path fill="#B1B1B1" d="M377 365c0-5 4-7 5-12l4-2v10l-1 2c0 1 0 2-2 2-2-2-4 1-6 0zM380 369l-2 1v-2c1-1 2-1 2 1z"/><path fill="#0F0F0F" d="M257 225c-3 0-4 2-5 4 0 2-1 2-2 3v1l-6 9-1 2-6 5c-1 2-2 3-4 3-4 0-6 0-9 2h-1l-1 1v1l-3 1c-2-2-3-5 0-6 4-2 3-6 4-9v-3l2-1c5 0 10-1 13-4 2-3 4-6 1-10l-1-1v-2l3-3 5-5c3-1 3 1 5 3 1 3 5 3 6 7v2z"/><path fill="#7E7E7E" d="m257 223-7-6 1-1c5 1 9 5 13 9l8 7h-3l-12-9z"/><path fill="#282828" d="M264 235c0 1 0 2-2 2v-1l2-1z"/><path fill="#BCBCBC" d="M259 229c-1 0-2-1-2-3 2 0 2 1 2 3z"/><path fill="#A7A7A7" d="M287 294v-3c2 0 2-3 4-1v2c0 2-1 4-4 2z"/><path fill="#7E7E7E" d="m297 218-6-2-1-2 4-1a312 312 0 0 0 8 4c1 3 2 6-3 7l1-3c2-3 0-3-3-3zM293 229c1-2 1-5 5-5l-3 8c-3 1-4 0-2-3z"/><path fill="#383838" d="M293 229c-1 2-1 3 2 3l-1 2h-3l-1-4v-2c2-1 2 0 3 1z"/><path fill="#282828" d="m49 178-1-3c2-2 4-2 6-1l10-1 4-2c2-1 2-4-1-5-1-1-2-2-1-4 2-1 2-4 3-7l2-2c4-1 9-4 14-1l2 4c0 2-2 2-4 3h-2c-2-3-3-3-5 1l-1 3c-1 3 1 3 3 3 2 1 6 0 2 5h-2l-3 1-1 2v2l-2 3c-1 4-3 6-7 7l-2-1v-6h2c-4-3-7-2-9 1-3 1-5-1-7-2z"/><path fill="#4A4A4A" d="M65 179c-2 1-1 4-2 6-2 0-3 0-5-2-1-1-2-1-2-3s1-4 3-4 6-2 6 3z"/><path fill="#151515" d="M65 186c1-3 6-3 6-8 3-2 5 1 7 1l1 2-4 3c-2 0-5 0-5 4-2 0-4 1-5-2z"/><path fill="#1C1C1C" d="M56 180c1 0 2 1 2 3-3 1-6-1-10-1v-4c3-1 5 2 8 2z"/><path fill="#ADADAD" d="m332 52 1-6c1 0 4-1 4 1 0 3-2 4-5 5zM327 50c1 0 2 0 2 2-1 0-2 0-2-2z"/><path fill="#080808" d="M227 141c1 3-4 5-2 9 1 2 0 3-2 4l-1 1c-3 1-3 3-4 5-1 3 1 7-3 9l-2-1s0-1 0 0l-1 6c-1 4-6 4-7 8 6 2 12-2 18-1l1 3v4c1 1 3 0 5-1l5-2 2 1 1 6 1 4-1 1h-2l-2-3-1-2c0 2 0 4-2 5l-1 1c5 1 10 2 13-2l-4-3-2-7 2-3 2-2h3l3 1 2 6c1 3 3 5 6 6v4l-3 4-5 2-5 2-8 4v1h1l2 1 1 4-1 2c-2 0-5 0-5 3l-2 1-3 3-1 1-3 2-3 1h-2l-4-2-2-9 2-3 2-2c3-3 6-1 9 0l2-3a15 15 0 0 1 0-1l-1 1-4-1-1-1c-4-3-5 2-8 3h-3c-2-1-4-3-7-1-3 1-4 0-4-3l-1-5 1 2c-1 6 3 8 8 10l5 1v1c-2 4 1 7 1 11-2 2-5 3-6 6l-4 1-1-1c-1-4-4-7-7-10l-2-5v-7l1-2-1 2h-2c-2-3-1-5 0-8v-3c-1-6 0-10 7-11 3 0 2-3 0-5-3-4-7-7-12-10l-6-4c-1-1-2-2-4-1-6-1-10 3-13 8l-3 4c-2 0-3 1-3 3 2 4 1 9 1 13v5c-2 3-3 6-7 8-4-2-5-6-6-10s0-7-2-11v-3l3-2c2 0 3-2 4-4l3-9c4-1 6-3 8-6 2-2 2-4 6-4l5-2c3-4 9-7 10-13 1-2 3-2 5-2 1 1 4 2 3 4-1 3 1 5 1 8 0 2 2 2 3 1 4 0 7-1 10 3h3c2-1 0-2 0-3l-6-6-2-4c-1-10-9-14-15-21-3-2-5-6-6-9v-4c2 0 3 0 4 2l3 4c2 3 3 5 7 4 3 0 4 2 6 4 7 5 11 13 18 19 3 3 4 2 6-1 1-2 3-4 6-4z"/><path fill="#C1C1C1" d="m143 101 1 1 1 2-1 5-2 9-2 5-4 7-5 6-6 6-4 4h-2l-6-4-8-8c-3-2-1-4 0-7v-1l4-5v-3c2-1 4-3 4-5 1-5 4-7 8-8 3-1 5-1 7-4 1-3 4-2 5 0 2 1 4 1 5-1 2-3 4-4 5 1z"/><path fill="#0F0F0F" d="M166 161c-3 1-4 4-5 6-2 2-3 5-8 4l-1-5 1-5c-1-2 1-4 2-6l1-1c2-3 3-7 2-10 0-3 2-5 1-7l-1-3c-1-3 2-6 4-7 3-1 6 2 10 3 3 0 3 3 2 4-4 5-1 12-5 16l-1 2c3 4 0 6-2 9zM184 111v-4c2-2-1-7 3-6 2 0 6 2 8 5l11 16c3 5 7 7 13 7 1 3-2 6-3 9-1 2-2 1-3 0-4-6-11-10-12-18 0-2-2-2-4-3-4-2-9-2-13-6z"/><path fill="#969696" d="M144 101c-3-3-4-3-5 1-1 3-3 2-4 1-3-2-5-5-8 1l-4 2c-5 1-9 3-9 9 0 2-1 3-4 3l-2 1v-6l3-2 1-2v-2l-1-1-1-2-1-1 3-2 5 1h4l1-1c1-4 3-6 7-6h3c3 0 3-3 5-3 4 0 6 3 7 7v2zM143 109v-4c2-1 2 0 3 1l6 9c2 1 3 3 3 6v5l-4 2h-3l-5-2c-2-3-1-5-1-7 0-4 3-6 1-10z"/><path fill="#080808" d="m155 121-3-5c4-5 7-1 11 1l1 2-2 1c-2 0-5-1-7 1zM165 121c5-2 8 1 11 3l1 2-3 1c-4 1-7-1-9-6z"/><path fill="#0F0F0F" d="M225 125c2 1 5 2 4 6-3 0-5 1-5 4-1 1-1 2-3 1v-3l4-8z"/><path fill="#151515" d="M137 89v-7l4 2c2 1 4 2 4 4 0 4-3-1-4 2-1 2-3 2-4-1z"/><path fill="#282828" d="M137 89c1 1 2 3 4 1l4 5c1 1 2 3-1 4l-7-7-1-2 1-1z"/><path fill="#878787" d="m151 127 3-1 2 7-1 1c-2-2-5-3-4-7z"/><path fill="#969696" d="M155 134h3l1 2c-1 2-3 2-5 0v-2h1z"/><path fill="#282828" d="m146 106-2-1v-3c2 0 2 2 2 4z"/><path fill="#0F0F0F" d="M223 122c1-1 2-1 2 1l-2-1z"/><path fill="#A1A1A1" d="M196 97v-1l1-1c0-1 0-3 2-3 2 1 2 3 2 5l-2 1c-1 1-2 1-3-1z"/><path fill="#B7B7B7" d="M206 100v2c-3 1-5 1-5-2h5zM199 99l2-2v2h-2z"/><path fill="#202020" d="M177 84h-2 2z"/><path fill="#B7B7B7" d="M206 102c4 0 7 5 12 1 1-1 3 0 3 2 1 1 1 2 3 1v-3c-2-3 0-3 3-3s7 0 8-4c1-2 3-1 4 1l3 7c2 4 0 9-4 12-2 0-3-2-4-3-3-4-5-4-8 1l-1 1-3-1c-3 0-5-1-7-3a176 176 0 0 0-10-8l1-1z"/><path fill="#BCBCBC" d="M225 115c-1-6 4-5 7-7 1-1 2 0 2 1 0 3 3 5 5 8v2c0 2 0 4-2 6s-4 0-5-2l-3-4c-1-2-1-4-4-4z"/><path fill="#7E7E7E" d="M231 123c2 0 3 3 6 2 1 5 0 10-4 14h-1c1-5 1-10-1-16z"/><path fill="#202020" d="m205 103 1 1c-4 3-11-2-10-7l2 1 2 2 5 3z"/><path fill="#6E6E6E" d="m223 153 2-3c3-3 4-7 6-11h1l1 2-1 4-3 8-2 3c-3 1-3-1-4-3z"/><path fill="#202020" d="m215 111 6 3c0 2-1 3-3 2-2 0-3-2-3-5z"/><path fill="#B7B7B7" d="M225 116c1-1 3-3 4-1 2 1 0 2 0 4l-4-3z"/><path fill="#202020" d="M191 96c-1 0 0 0 0 0z"/><path fill="#0F0F0F" d="M239 118v-1l4-13c2-4 2-10 6-14 2 1 5-1 6 3l3 3 2 5-2 3c-1 1-3 0-2 2l1 2-2 1v3l-3 3-1 2v2c-2 2-5 1-6 4 0 2-4 0-6-5z"/><path fill="#282828" d="M115 85c3-2 4-6 8-7v-4l5 1 5 10v1c-2 0-3-3-4-1-2 1 0 3 0 4l1 3-1 1-3 1-2 1-1-1c-3-3-7-5-8-9z"/><path fill="#4A4A4A" d="M123 73c-4 0-8-2-12-5 5-1 9 2 12 5z"/><path fill="#6E6E6E" d="M106 65h-1v-1c0-2 1-3 2-2 2 1 0 2-1 3z"/><path fill="#383838" d="M105 64v1h-2l2-1z"/><path fill="#626262" d="m136 90 1 2c-2 1 0 4-4 4v-4c0-1 1-2 3-2z"/><path fill="#4A4A4A" d="M133 92v4h-3l-1-3 1-1h3z"/><path fill="#282828" d="m137 86 2 1c1 1-1 1-2 1v-2zM100 81c-2 0-4 0-4-4 1-1 1-6-3-3h-4c-3-2-6-2-8 2-1 1-1 2-2 1v-2c1-2 3-4 3-7 2 0 5-3 4 2 0 1 2 2 3 1l6-1h6c2 2 0 3-1 5v6z"/><path fill="#4A4A4A" d="M115 85c2 3 6 5 8 9-2 2-3 2-5-1-2-2-4-3-6-1h-4c-2-2-5-3-8-3l-3-1 1-3h3c3 1 6 4 8-2h1c2-1 2 2 4 2h1z"/><path fill="#282828" d="M114 85c-3 2-3-1-4-2 0-2 0-3 2-3 3 1 0 4 2 5zM75 64c-2 0-5 5-5-2 2 0 3 0 5 2z"/><path fill="#151515" d="m154 165-1 6-3 9c0 4-2 7-7 6l-13 5-3 2c-5-2-7 3-11 3v2c2 3-1 4-4 5 5 1 8 1 11-1 1-1 3-3 5-3h4c3 0 4-2 5-4s2-6 6-7c4 2 1 6 2 8 1 5 1 9 5 13l6 5v3c2 9 3 17 6 25 2 6 1 12 4 18-3 6-4 14-9 19l-2 1c-5 0-6-5-9-6 3 3 7 6 9 10 3 7 6 14 1 23-4 4-7 10-13 11-3 1-6 2-6-3 0-2-2-2-3-3-2-1-4-2-2-5 1-2-1-2-2-2-10 3-21-4-24-13-2-4-2-9-5-12l-1-1c2-3 2-6-1-8l-9-1h-2c-1-1-3-1-3-3s2-2 3-2c4 0 4-2 4-5l1-4c5-1 10-3 16-2l2 1 3-1c0-2-1-2-2-2-6-3-13-3-19-4-7-1-8-2-8-8-1-5-3-9-3-14l-3-3c-1-1-2-1-1-3l3-1c10-1 20 0 29 5 1-2 0-3-1-3l-12-6c-2-1-4-3-7 0-1 2-12 0-13-2l-1-3 3-1h3c-3-3-6-5-8-9-1-1-3-1-1-2 1-2 3-3 5-3s0 2 0 3c0 3 2 3 4 3 2-1 5-2 3-5-2-4-1-8-1-12 2-2 4 0 6 0 9 2 18 5 28 3h2l2-1h4c5 0 8-3 12-5 2-1 2-3 2-5 0-3-3-5-1-9l11-4 4 2z"/><path fill="#ADADAD" d="M120 187c-11 3-21 1-31-2l-4-1-5-2c-1 1-1 0-2-1l1-5 6-2 8 2 13 1c2 1 5 1 8-1l3-1 2 2v2l-5 5c2 2 5 0 6 3z"/><path fill="#6E6E6E" d="m154 315 3-8c-1-1 0-2 1-3l4-3 3-1c4 1 6 1 9-1l1-1c6-1 10-3 14-7 2-2 4-4 5-8v-2l4-2c2-1 2-2 2-4l2-1h3v5l-1 3c-3 1-5 4-6 6-5 9-11 14-20 17l-4 1c-7-1-12 2-15 9v1c-1 1-2 2-1 3v2c-2 1-3 2-3 4l-1 1-1 7c-1 1-1 2-3 2v-3c-2-6 1-11 4-17z"/><path fill="#080808" d="m160 304-2 3h-2v-3c4-11-1-19-9-27-2-2-5-4-4-5 2-2 4 2 6 3l5 5 4 2c2 2 4 2 7 1 3 0 5 0 5 3l5 5c-1 3-3 4-5 5l-8 4-2 4z"/><path fill="#878787" d="m150 335 2-2 1 1c0 5 2 9 8 10 2 1 4 3 3 6s-4 5-8 3c0-4-2-5-5-3-4 2-6 1-8-2-1-3-6-1-7-5 5-2 10-4 14-8z"/><path fill="#151515" d="M154 315c-1 6-4 10-4 17-3 1-3-2-4-3-3-4-7-8 2-10 2 0 2-4 6-4z"/><path fill="#282828" d="m77 181 3 1c0 3-3 2-5 2l2-3z"/><path fill="#A1A1A1" d="M157 321v-2c-1-1 0-2 1-3 4-7 10-9 17-7 7 1 10-3 14-7 1-2 3-4 6-3l1 2c-1 7-4 11-8 15l-3 2c-1 2-2 3-1 5h4c5-1 9-4 14-1-4 5-8 10-14 14-5-4-10-1-14 1l-14 4c-4 1-6-1-7-6l1-9 3-2 6 6c2 2 4 1 6 0 2-3 2-6 3-10l-3-2c-4-1-8 0-11 3h-1z"/><path fill="#969696" d="M154 326v8c0 6 3 7 9 5l20-7c3 0 5 0 5 4-8 7-16 14-26 18l-6 2v-3h3l4-4c0-2-1-4-3-4-7 0-8-4-8-9v-3c0-2-1-5 2-7z"/><path fill="#A7A7A7" d="M202 322c-5-1-10 1-15 2-1 1-3 2-4 1-2-1-1-3 0-5l2-3c4-4 8-8 10-15 3-1 3 1 3 3-1 4 1 5 5 6 2 0 4 0 6 2l-5 8-2 1z"/><path fill="#1C1C1C" d="m207 349-6 6c-4 0-6 4-9 3h-4l2-3c2-2 4-6 8-4 2 1 5-1 7-4 1-2 2 0 2 2z"/><path fill="#4A4A4A" d="m215 358-2 1c-1-1 0-2 1-4l1-1c3-2 3-6 6-8l1 5-1 1c-4 0-4 4-6 6z"/><path fill="#878787" d="M156 353v2h-5l5-2z"/><path fill="#151515" d="m207 373-1 2-8 4-4 3c-4-1-6 1-8 4-1 3-3 4-6 5 1-3-3-3-3-6 8-1 14-7 21-9 4-1 6-4 9-5v2z"/><path fill="#1C1C1C" d="m214 355-1 4-3 4c-2-4 0-7 4-8z"/><path fill="#585858" d="M194 382c0-2 2-2 4-3v1c-1 2-2 2-4 2z"/><path fill="#151515" d="M132 387c0-1 0-2 2-2v4c-1 0-2 0-2-2z"/><path fill="#0F0F0F" d="M31 128v-1c2-1 2-3 1-5 0-4 0-7 3-10 3-2 5-5 6 2 0 1 1 2 3 2l8 1c2 0 4-1 5 2 0 2 2 5-2 7-1 0-2 1-1 2l2 1c4-1 5 4 9 2l-2 6c0 4-1 5-5 5-2 0-3 3-5 4-2 2-4 5-8 3-2-1-3 2-4 4 0 2 1 4 4 4s6 0 8-2c1-2 2-2 4-1 5 3 5 6 3 12-1 4-3 6-8 6-1 1-2 0-4-1-7-4-13-10-15-18-1-5 1-10-3-15 0-1 2-4 1-7v-3z"/><path fill="#282828" d="M81 92c2 2 3 2 4-2 0-3 1-3 4-3s4 2 6 3l-1 3-2 2h-3c-6 2-9 7-7 14 1 3 1 6-2 8-2 1-2 4 0 5l5 7 1 1c1 5 3 8 7 11l1 1c1 3 0 6 2 9l-1 10-3 1c-2 0-3-1-3-3l1-5c0-4 1-9-4-10-2-1-2-2-2-3-2-6-6-9-11-13l-2-1h-2c-1-1 0-2 1-3v-2c-3-4-4-9-5-14l-5-5c-3-1-1-3-1-5 4-3 0-4-2-5 3-2 4-5 8-4l9-2 1 1v3l-5 4c3 2 3 5 2 8 2-1 5-1 2-5s2-4 4-6h3z"/><path fill="#1C1C1C" d="M73 128c3-1 5-2 5 3l5 4c2 2 3 4 2 6l2 2c6 1 4 6 4 11-2 1-4 0-6-1-2-2-5-2-7 0h-7l8-8 2-2-3-1c-2 0-5 0-7 3l-3 3-2-1v-2c4-1 6-5 9-6 4-2 4-4 1-6-1-1-3-2-3-5z"/><path fill="#202020" d="m59 98 4 5 2 5H54c-2-1-2 2-4 2 0-3 1-7-2-10v-1l5-1c1 0 2 1 2 3l-1 3 3-3 2-3z"/><path fill="#1C1C1C" d="M65 108c1 0 3 0 2 2-1 5 2 8 5 11 1 2 0 2-2 3l-5-4c-5-3-3-7 0-12zM66 162l1 3c2 0 4-3 4 1 0 3 1 7-4 7h-3c1-4-1-7 2-11zM48 171l4 1 2 2-5 1-1-4zM61 122h2c1 1-1 3-2 2v-2z"/><path fill="#202020" d="M42 99h2l2 1c-2 1-3 2-4-1zM38 91h1v1l-1-1z"/><path fill="#1C1C1C" d="M71 153c0 1 0 2-2 2 0-1 0-2 2-2z"/><path fill="#7E7E7E" d="M22 124z"/><path fill="#282828" d="M361 162c-1 0-2 0-1-2l1 2z"/><path fill="#ADADAD" d="M260 329c4 1 2 5 4 8v2c0 4 1 9-5 11-2-3-5-3-8-3-5 0-11 1-15-4-1-2-3-1-5-1l-2-3c1-2 2-2 3-2 6 2 12 6 18 6 4 1 7 2 8-3 2-5 0-6-5-6 2-3 6-1 7-5z"/><path fill="#B7B7B7" d="M264 339v-2l1-2c3 2 2 3-1 4z"/><path fill="#ADADAD" d="m242 368 1 2h-2l1-2z"/><path fill="#B7B7B7" d="M385 363c-1-1-1-2 1-2l-1 2z"/><path fill="#BCBCBC" d="M308 101c3-1 5 3 8 4l2 4c-1 5 2 8 6 11 2 1 3 3 3 5 1 4 3 6 6 8l-4 10-1 1-1 2-2 1-1 1-2 3-1 3c2 4-1 7-1 10-1 4-3 4-6 3-4-5-8-8-14-8l-8-2c-1-1-3-2-4 0-1 1 1 2 2 2 2 1 4 2 4 4 3 5 1 8-6 9h-3c-1 0-2-2-4-1-2 2-1 6-2 8-2 1-4 1-5-1-2-3-3-5-2-8 5-2 6-7 7-12 2-2 3-5 3-8l1-4v-3c1-4-1-6-4-8l-6-3-2-5v-18c0-4-2-6-5-8-1-2-3-3-3-5 0-3 1-4 3-3 3 1 6-1 5-4-1-2-2-3 0-4 2 0 3 1 3 2 1 7 6 8 12 10 2 1 3 3 3 5l2 5c2 3 5 3 5 0 1-6 5-5 10-5l2-1z"/><path fill="#B1B1B1" d="M308 80c-3-3-7-1-9-4-1-2-3-3-2-4 1-2 3-4 6-4l6 1a860 860 0 0 1 26 13l-4 3c-8 0-16 0-23-5zM282 75c5 1 8 4 10 7s-2 5-4 8-5 0-8 0c-1 0-4-1-3-3 0-2-1-5 2-6s1-4 3-6zM289 102l-3-5c0-3 2-5 4-4 3 0 6 3 7 6 1 2-1 4-3 5-2 2-2-2-5-2z"/><path fill="#6E6E6E" d="M263 95c3 4 8 7 9 12l-1 2c-4-1-5-4-6-7l-3-3-4-3c-1-1-4 0-3-3l8 2z"/><path fill="#BCBCBC" d="M308 91c-1-2 0-2 2-1l1 2c-1 1-2 0-3-1z"/><path fill="#1C1C1C" d="m356 115-3 1c0-2 1-2 3-1zM353 116v1h-1l1-1z"/><path fill="#0B0B0B" d="M314 166c2 2 4 1 5-1h3c1 4 4 6 8 7l4 4c1 2 3 2 5 2v5l-2 2c-1 0-3-1-4 1l-1 3-1 1c-3 1-3 3-5 5-1 1-2 3-5 3-5-4-8-8-7-14 0-2-1-3-3-4h-2c-3-2-2-4-1-7s2-6 6-7z"/><path fill="#B7B7B7" d="M334 133c-6 1-8-3-8-7l-2-5c-5-3-9-5-7-12l-1-4c8 8 20 11 29 19l-11 9z"/><path fill="#151515" d="M339 178c-3 4-5 1-6-1-3-5-6-6-11-4-1-3 2-5 0-8 0-3 2-4 5-5 1 4 5 5 8 7 2 2 3 0 3-2l1-5 2-2 2 2 1 6 1 3c0 4-3 6-5 9h-1z"/><path fill="#1C1C1C" d="M343 167c-2-2 0-6-2-9-2 2-1 4-1 6s0 5-2 6c-2 0-5-1-6-3l-2-2c-6 2-3-2-3-5 3-6 9-7 16-4 2 3 2 7 0 11zM349 138l1 1c2 2 1 3 0 5l-5 9h-2c-4-1-1-4-1-4l7-11z"/><path fill="#0B0B0B" d="M343 153h2l2 4c1 5 0 8-3 12l-1-2v-14z"/><path fill="#0F0F0F" d="M328 144h1l-1 7c-1 3-2 2-4 0l4-7z"/><path fill="#1C1C1C" d="m322 151 1-4c2 1 2 2 1 4h-2z"/><path fill="#0B0B0B" d="M345 153c0-3 3-5 4-8l1-6c3 1 2 2 1 4l-3 8v2h-3z"/><path fill="#4A4A4A" d="M113 109v2c-1 0-3 0-4 2v1l-4 2c-2-1-3-2-5-1h-2c-5 0-9 3-11 7l-1 5h-1c-5-1-3-4-2-7s2-7 1-11c0-2 2-4 4-5 2 0 2 1 3 3 1-2 2-4 5-5h-4c-3-1-4-2-1-5l3-4c4-1 8 2 12 4v2c0 3 3 3 4 5l2 2 1 3zM74 91l1-2v-1l-10 1c1-2 3-2 5-3 2 0 3 0 2-3-1-2 2-2 3-1 3 2 7 4 6 10h-3c-1 1-3 1-4-1z"/><path fill="#282828" d="M108 92h4l2 2 1 1c0 3-1 4-3 5l-1 1-2-1-3-3 2-5zM65 75c-3-1-1-2 0-3 4-2 6 1 9 2 1 1 0 3-2 3l-7-2zM53 98l-5 1c0-2 1-3 3-4 1 0 2 1 2 3zM57 101c-1 2-1 5-6 4l4-4h2z"/><path fill="#4A4A4A" d="M55 90c0 1-1 2-2 1v-2c0-1 2-2 2 1z"/><path fill="#383838" d="M46 81v1-1z"/><path fill="#B1B1B1" d="M209 313c-4 1-8-2-12-1l-1-3c-1-2 2-5-1-7v-3c4-2 6-4 7-9 1-10 5-13 15-14 4 2 7 4 8 8-2 3-5 1-7 0-4-2-7-2-8 3 0 3-2 6 0 7 2 2 5 0 8-1l3-2c1-1 2 0 2 1-3 8-9 14-14 21z"/><path fill="#080808" d="m224 239-1 9c0 1 1 4-3 3-2 0-2 3-1 5 0 2 2 2 4 3v2c-3 1-4 6-9 5-2 0-2-1-2-2v-2l1-7c1-1-2-2-2-4-1-3-1-5 1-8v-2l1-1 3-1 3-1h4l1 1z"/><path fill="#BCBCBC" d="M224 292h-3c-2 4-7 2-11 4-1 1-3 0-3-1 2-5 1-10 5-14h5c2 3 5 3 8 3h3c0 4-3 5-4 8z"/><path fill="#969696" d="M228 284h-3l-7-7c-2 0-5 1-7-3 0-2 1-3 4-3l3 2 1 1h4l3 3 2 1 1 2-1 4z"/><path fill="#282828" d="M222 274c0-2-3-2-3-5l16 8 1 3c-1 2-3 1-5 1l-2-1-2-2-5-4z"/><path fill="#6E6E6E" d="M215 271c-1 1-3 1-3 3l-3 1-3-2-1-2c1-2 1-3 4-4l4 1 2 3z"/><path fill="#626262" d="M213 268h-4c-1-2 0-3 1-4l1-1h2v5z"/><path fill="#BCBCBC" d="m230 280 1 1c1 2-1 3-2 3l-1-3 2-1z"/><path fill="#282828" d="M245 286c-1 2-2 1-3 0v-1l3 1zM240 283c-2 1-2 0-2-1h1l1 1z"/><path fill="#878787" d="M219 274h-1v-1l1 1z"/><path fill="#B7B7B7" d="M251 308z"/><path fill="#151515" d="M223 259h-5c-1-1 0-2 1-3h2l2 2v1z"/><path fill="#202020" d="m248 276 1 1v2l-6-3h5zM240 274c0-1 0 0 0 0z"/><path fill="#080808" d="M224 254c2-3 4-3 8-2l-8 2z"/><path fill="#282828" d="m222 255-1-1h2l-1 1z"/><path fill="#626262" d="M244 242c1-4 3-6 5-9 1 4-2 6-5 9z"/><path fill="#6E6E6E" d="M261 245c0-1 0-3 3-2 0 1-1 2-3 2z"/><path fill="#626262" d="M251 232v-2 2z"/><path fill="#282828" d="m344 169 2-12 2-1 1 1 2 3 2 1 1 1 8 7c0 1 2 2-1 3-4 2-8 5-10 10-1 1-3 2-5 1 0-2 0-4-2-6-1-1-1 1-1 2h-2l-1-1c-1-4 3-5 4-9z"/><path fill="#151515" d="M321 197c3-1 5-4 7-6 0-1 0-4 3-1 1-1-3-3 1-4l4 1 1 1-1 2-2 2c-3 2-7 4-5 9 0 2-1 4-3 2l-6-2h-2c-1-2 0-3 3-4z"/><path fill="#383838" d="M318 201h2l2 6 3 3v1l-6 3h-2l-3-4-1-7 1-1 2-1h2z"/><path fill="#1C1C1C" d="M351 182c0-7 5-8 10-10-3 4-5 8-10 11v-1z"/><path fill="#4A4A4A" d="M337 188h-1c-1-1 0-2 1-3l1-2 1-1c3 4 3 8 3 13-2-2 0-7-5-7z"/><path fill="#151515" d="M337 213c-3 2-6 2-9-2 3 1 6-1 9 2z"/><path fill="#1C1C1C" d="M362 169c-3-2-6-3-8-7 4 0 6 4 9 6l-1 1z"/><path fill="#202020" d="m338 224-5-4c2-2 5-1 8-1l-3 5z"/><path fill="#585858" d="M341 179h2l2 11h-1l-3-11zM334 192c0-1 0-2 2-2 1 4 1 7-1 10l-1-8z"/><path fill="#282828" d="m351 185-2 8-2-8h4z"/><path fill="#202020" d="M351 185h-4l-1-2 5-1v3z"/><path fill="#383838" d="M344 190h1l1 5c-2-1-2-3-2-5z"/><path fill="#151515" d="M330 206c0-2 2-3 4-3l-4 3z"/><path fill="#282828" d="M325 210c-2 0-3-1-3-3 2 0 3 1 3 3z"/><path fill="#151515" d="m330 206-1 1h-1l2-1z"/><path fill="#282828" d="M344 211c-1 0 0 0 0 0z"/><path fill="#0F0F0F" d="m348 156-2 1-1-4h3v3z"/><path fill="#1C1C1C" d="M351 160c-1 0-2-1-2-3 1 0 2 1 2 3zM353 161l-2-1 2 1zM354 162l-1-1 1 1z"/><path fill="#080808" d="M318 201h-2c0 2-2-1-2 2h-1c-1 0-2 0-3 2h-3l-1-2-3-2-2-2h-3c-1 0-2-3-3-1s-2 3-5 2l-1 2v5h-5c-2-2-3-4-3-7-1 5-4 7-8 6 0 3 2 6 4 9v2l-1 1h-5l-2 1c-3-2-3-5-4-8-1 0-1-2-3-1h-4l-2-1v-5l1-1-1-2c-2-5 3-4 5-5l1-2c1-3 4-4 5-6 1-5 5-4 8-5-1-2-2-2-1-4h5c2-2 5-2 8-3l12-3c3-1 6-2 10 0 0 2-2 4 0 6 1 1 0 2-1 4l-1 1 1-1 3-4c3-2 3 2 5 2 2 1 0 2-1 3l-1 3c3 3 3 7 7 10-1 1-3 2-3 4z"/><path fill="#202020" d="m299 199 2-1 2 2c1 1 3 1 3 3-3 0-5 0-7-3v-1z"/><path fill="#282828" d="M307 205h3c0 1 2 3 0 4-2 0-3-1-3-4zM314 210c1 1 3 1 3 4h-1c0-2-5 0-2-4z"/><path fill="#151515" d="M299 199v1l-1-1h1z"/><path fill="#202020" d="m331 220-4-1c0-1 0-2 2-2 1 0 2 1 2 3z"/><path fill="#383838" d="m264 225-12-8c-4-3-2-6-2-10 1-2 2-2 4-1 2 3 3 7 6 10h1l2 2c0 3 3 4 1 7z"/><path fill="#383838" d="M268 218h3v2l-4 1-4-2-2-2c-2-2-4-4-4-8h4l1 1 1 3 5 5zM275 218l2-1c2 0 4-1 5 3-3 2-6 1-9-1v-1h2z"/><path fill="#151515" d="m267 221 4-1c1 1 1 3-1 4s-2-1-3-3z"/><path fill="#0F0F0F" d="M277 215c-4-3-6-7-6-12 6 3 6 3 8-3l2-2 1 2c-1 2 2 4 2 7l-1 1c1 7 1 7-6 7z"/><path fill="#282828" d="m294 213-4 1-1-1c1-1 3-3 5 0z"/><path fill="#A7A7A7" d="M239 223c3 1 3 3 3 6-1 5-4 8-9 9l-6 1c-1-5 1-8 4-9 2 0 3 0 4-3v-2l4-2z"/><path fill="#6E6E6E" d="M236 227c0 3 1 5-4 4-4 0-4 5-6 7l-2 1h-1c-1-2 0-4 1-6l2-2 3-3 2-1 2-1 3 1z"/><path fill="#626262" d="M231 221c-1-2-1-3 1-4 1-1 2 0 4 1l2 2 1 1v2l-4 1-2-1-2-2z"/><path fill="#A1A1A1" d="M250 207c2 3-1 6 1 10h-1c-2-1-1-4-4-4l-2-1v-2c1-2 4-1 5-3h1z"/><path fill="#878787" d="m244 212 2 1c0 2-1 5-4 5l-3 1-3-1 1-1-1-1 3-1h3l1-2 1-1z"/><path fill="#282828" d="M234 223h5l-2 2-3 1v-3z"/><path fill="#626262" d="M238 218h3l-2 3h-1v-3z"/><path fill="#383838" d="M249 228v-1 1zM249 228s0 1 0 0zM90 158c0 1 0 2 2 3l1 2c0 2 0 4-3 5-2 0-2 3-4 5l-2 1c-2 0-3-1-4-3 2-4-1-4-3-3-3 0-5-1-3-5 2-1 3 1 6 1l6-1c1-4-2-2-3-4 0-2 2-2 4-2 1-1 2 0 3 1z"/><path fill="#A1A1A1" d="m79 171 5 2 1 2c-1 3-3 0-5 1h-2l-2-3 1-2h2z"/><path fill="#383838" d="m75 160 1-4c2-1 3-2 4-1 2 0 1 2 1 3 1 2 0 2-1 3l-5-1z"/><path fill="#6E6E6E" d="m79 161 2-2h2c2 1 7-2 4 4l-4 1-3-1-1-2z"/><path fill="#969696" d="M78 176h2l-1 4c-3 1-5-1-8-2 0-1 0-2 2-2l2-1 3 1z"/><path fill="#7E7E7E" d="m79 160 1 2 1 2-1 1c-2 0-4 0-6-2l1-3h4z"/><path fill="#202020" d="m90 158-3-1-2-4 6 1-1 4z"/><path fill="#6E6E6E" d="M78 176h-3l-2-2v-2c2-1 3-1 4 1l1 3z"/><path fill="#585858" d="m77 173-3-1c-1-3 1-2 3-2v3zM73 174c1 0 2 0 2 2h-2v-2z"/><path fill="#4A4A4A" d="M65 179z"/><path fill="#383838" d="m191 202-1 9c-3 1-3 3-4 6-4 1-6-1-9-4l-1-2c0-3-2-5-4-7l-2-2c-2-2-3-4-1-6 1-2 3 0 5 1l2 2 1 1c1 0 0-1 0 0l-1-1c-1-1-1-2 1-4 4-4 4-4 0-8l-2-4c0-2-2-3-3-4l-1-4c4-3 6 1 9 3l2 1c1 2 2 4 4 4l3 3c1 5 0 10 2 16z"/><path fill="#1C1C1C" d="M143 188c-3 3-4 6-6 10-1 2-2 4-5 2l-3-1c-4 2-8 7-14 6h-3l-2-3 3-1 2-1c1-1 0-1-1-2-3-2-2-3 1-3 2-1 5 0 6-5 1-3 3 2 6 2 3 1 5 4 8 1-2 0-4 1-6-1 4-4 8-8 14-6v2z"/><path fill="#0F0F0F" d="M172 174v5l1 3-2 3c-1 1-2 2-1 3v1c-3 4-4 8-5 13l-1 1c-1 1-3 2-5 1s-2-3-2-6c0-4 0-7 4-9 1-1-1-3 1-4s3-2 2-4c0-2-1-3-3-4 3-7 8-10 14-9l1 1-1 3-3 2z"/><path fill="#151515" d="M223 181c-5 1-10 4-15 3-2 0-5 1-5-1-1-2 1-5 4-6l4-3c2-1 5-1 4-5 4-2 1-6 2-9h2c4 7 8 13 4 21z"/><path fill="#282828" d="M223 181c2-8-2-14-6-21 0-2 0-5 4-6 1 3 0 6 3 8v1l2 2h2c2 1 5 1 7 4 1 4-3 4-4 7-1 1-2 0-1 1 3 1 2 4 3 6l1 2c0 3-3 2-5 2-2 1-4 0-6-2v-4zM172 174c0-1 0-2 2-2 3 0 7 2 11 1 6 2 11 7 15 11 2 3 0 6-3 6-6 1-7 5-5 10l-1 2c-1 0-3 0-3-2 2-4 0-9 0-14 2-1 4 1 6 1-5-3-8-7-14-8l-8-5z"/><path fill="#151515" d="m234 185-1-1v-2c2-1 3-3 3-5l2-2 3-2c3 2 6 1 8 2 3 0 5 1 5 4-2 4-5 3-9 3l-3-1h-1l-1 2-3 2-1 1-2-1z"/><path fill="#202020" d="M163 185c1 5-6 7-6 12h-1c-1-4 2-8-2-11l1-2 2-3 4-4c2 0 4 0 3 4l-1 4z"/><path fill="#0F0F0F" d="M155 214c-3 0-4-2-5-5 3-1 2-6 6-6 2 0 2 2 4 3a106 106 0 0 1 2 3l2 5c-1 3-2 3-4 2l-5-2z"/><path fill="#1C1C1C" d="M245 182c0-3 3 1 4-1 1 2 2-1 4-1 2 3 1 5-1 8v1l2 1 1 1c2 1 2 2 2 4h-3c-7-1-8-7-9-13z"/><path fill="#202020" d="M237 197v-4h1c3 1 5 3 8 3-4 0-6 5-9 4-4 0-9 2-12-3h5l1-1h4l2 1z"/><path fill="#0F0F0F" d="M212 210c2-1 2-3 5-4 1-1 3-1 3 2l5 1 1 5c-2 2-3 1-4 0-2-2-4-2-6 0l-3-2-1-2z"/><path fill="#151515" d="M213 241v2l-3 1-6-1-3-1-4-9 1-2c1-1 2-1 3 1v1l12 8z"/><path fill="#383838" d="M213 241c-4-1-9-3-12-8h11v2h-2l2 1 3 3-1 2h-1z"/><path fill="#0F0F0F" d="M206 215c-7-1-9-7-11-13l2-1c2 1 3 2 2 5 0 0-2 4 3 3 4 0 5 0 4 6z"/><path fill="#282828" d="M186 217v-3c-2-5 1-4 4-3h2l1 6-2 3-2 1-3-4z"/><path fill="#0B0B0B" d="M206 215c0-3 0-5-4-6 2-3 5-1 7 1 1 1 2 2 4 1 2 0 3 0 3 3l-2 1-3 1-5-1z"/><path fill="#151515" d="M212 233c-2 0-4 2-6 0-1-4 2-5 6-6h1l4 1v1l-3 2v1l-2 1z"/><path fill="#6E6E6E" d="M254 195h3l3-1 3 2c0 2-2 2-4 2-3 0-2 1-2 4l1 2h-3l-2-6 1-3z"/><path fill="#383838" d="M185 173c-4 4-7 1-11-1l1-3h4c2 0 4 2 6 4z"/><path fill="#151515" d="M232 210v-2l9-3 1 2v3l-1 2-3 1h-2l-2-2-2-1z"/><path fill="#4A4A4A" d="M224 163c-4-2-5-5-3-8l1-2 4 3c2 3 0 5-2 7z"/><path fill="#1C1C1C" d="m201 232-3-1h-1c-2-2-4-3-5-6l2-2c4 2 6 5 7 9z"/><path fill="#A7A7A7" d="m215 169 2 4-5 1-1-7h2l2 2z"/><path fill="#151515" d="m223 185 6 2c-1 3-4 3-6 3-4-1 0-3 0-5z"/><path fill="#585858" d="m242 208-1-3c2-3 3-1 6 0l1 1v1c-1 2-2 2-4 2-1 1-2 0-2-1z"/><path fill="#1C1C1C" d="m253 198 2 5c-1 3-3 2-5 1v-1l3-5z"/><path fill="#4A4A4A" d="m230 229-2 2h-4c-1-1-2-1-2-3 0-1 0-3 2-3l3 2 3 2z"/><path fill="#151515" d="m194 223-1 2c-4 0-3-2-2-5 0-1 0-2 2-3l1 6z"/><path fill="#383838" d="M213 227h-1c0-3-4-6-1-10l2 10z"/><path fill="#4A4A4A" d="m233 227-1 1-5-2-1-1c1-1-1-3 2-4l3 3h1l1 1v2z"/><path fill="#282828" d="m160 208-4-5v-6h1l2 7c1 1 2 2 1 4z"/><path fill="#626262" d="m235 213 3-1c2 0 2 2 2 4h-3c-2-1-2-2-2-3z"/><path fill="#202020" d="M179 168c-1 4-2 3-4 1v-1c1-1 3-2 4 0z"/><path fill="#282828" d="M212 202c-2-1-2-2-1-3h2c1 1 1 2-1 3z"/><path fill="#151515" d="m222 228 2 2v1l-1 1c-3 1-5-1-4-4h3z"/><path fill="#4A4A4A" d="M219 228c0 2 1 3 4 4 0 4-2 2-5 1l-1-1v-4h2z"/><path fill="#151515" d="M232 197h-2c2-2-1-5 2-7l1 4-1 3z"/><path fill="#6E6E6E" d="m249 202 1 1c0 1 0 2-2 2h-1c-1-2 0-3 2-3z"/><path fill="#383838" d="M232 197v-3l2-1 1 3c0 2-1 2-3 1z"/><path fill="#B1B1B1" d="M157 181c1 1 1 2-1 3-1-2-1-3 1-3z"/><path fill="#282828" d="m238 192-1 1-1-7 1-1 1 7z"/><path fill="#151515" d="M226 209c0-2 0-3 2-4l1 1c0 2-1 3-3 3z"/><path fill="#282828" d="M213 211c-2 3-3 2-4-1h3l1 1z"/><path fill="#383838" d="M206 190c2 0 2 1 1 2l-3-1 2-1z"/><path fill="#282828" d="M231 224c-2 0-2-1-3-3h2l2 1-1 2z"/><path fill="#626262" d="M213 167h-1c-3 0-2-2-1-2 1-1 1 1 2 2z"/><path fill="#282828" d="M192 211v-4c1 1 3 2 0 4z"/><path fill="#202020" d="m234 193-2 1v-4c1 0 2 1 2 3zM197 201l1-2h1c0 1 0 2-2 2z"/><path fill="#0B0B0B" d="M205 203h2l-1 1-1-1z"/><path fill="#151515" d="m211 216 3-1c0 1-1 2-3 2v-1z"/><path fill="#282828" d="m232 210 2 1c0 1-1 2-2 1v-2zM226 214l-1-5h1v5z"/><path fill="#151515" d="M217 219v1h-1c-1-1-1-2 1-1zM226 227c-1 0-2 0-2-2h2v2z"/><path fill="#1C1C1C" d="M241 181c0-1 0-2 1-1v1h-1z"/><path fill="#202020" d="M207 221h-1 1z"/><path fill="#151515" d="M229 213v1-1z"/><path fill="#1C1C1C" d="M251 197h-1 1z"/><path fill="#6E6E6E" d="m104 115 5-1-1 5-1 3-1 4v1c-1 1-1 3-4 3h-2c-2-2-3-1-4 0l-4 5c-2 0-3-1-4-3-1-9 5-13 10-18h2c1 1 2 2 4 1z"/><path fill="#878787" d="m124 142 6-6h2l1 3-1 5v1l-5 4-3 3h-3c-1 1-3 0-5-1v-4l3-1h2l4-2 2-1c0-1 0 0 0 0l-2 1c-1 0-2 0-1-2z"/><path fill="#BCBCBC" d="m102 130 4-3c-2 4-1 6 3 8l4 7c-2 4-4 1-5 0s-2-4-4-4c-4-2-4-5-2-8z"/><path fill="#B1B1B1" d="M104 137c2 0 4 0 4 3 1 2 2 4 5 2 3 0 5 1 6 4l-2 1c-6 0-12-1-13-10z"/><path fill="#6E6E6E" d="M143 109c3 0 4 2 2 4l-2 5c-1 1-1 2-3 0l3-9z"/><path fill="#7E7E7E" d="M140 118h3c2 2-1 4 0 7l-2 2-2-2v-2l1-5z"/><path fill="#969696" d="M132 136h-2l5-6h1c2 6 1 8-4 6z"/><path fill="#A1A1A1" d="M106 126c-1-1-2-3 0-5h4c0 2-1 4-4 5z"/><path fill="#BCBCBC" d="M136 130h-1c0-3 2-5 4-7v7h-3z"/><path fill="#A1A1A1" d="m126 144-5 2c0-2 1-3 3-4 0 1 0 2 2 2z"/><path fill="#B7B7B7" d="M110 121h-4l2-2 2-1v3z"/><path fill="#7E7E7E" d="M159 143c0 4 1 8-2 11-4 0-3-2-3-5l-1-1h-1c-1-1-3 0-4 1h-3l-4-2v-5c3-3 6-3 10-1l3 2h5z"/><path fill="#969696" d="M151 163c-3 3-7 4-12 4l-1-1c2-5 5-8 9-10l8-1-2 6-2 2z"/><path fill="#6E6E6E" d="M156 155c-3 1-5 3-8 1 0-4 4-5 6-8h1c2 2-2 4 1 6v1z"/><path fill="#A7A7A7" d="m159 143-2 1c-1-2-3-4-3-8h5c3 2 1 4 0 7z"/><path fill="#1C1C1C" d="m151 163 2-2c1 1 2 2 1 4-1 0-2 0-3-2z"/><path fill="#626262" d="M112 92c1-4 3-4 5-1 2 1 3 4 6 3h1l1-1h4l1 2c-4 1-6 3-8 7l-2-2-6-5-2-3z"/><path fill="#4A4A4A" d="M120 99c2 0 2 1 2 3h-1l-3 1-6-1-1-2c3-1 5-2 9-1z"/><path fill="#6E6E6E" d="m111 100 1 2c-1 0-2 0-2 2-3 0-5-3-6-5h5l2 1zM110 113c-1-2 0-3 3-2-1 2-2 2-3 2zM118 103l3-1c0 2-1 2-3 1zM113 109l-1-3c2 0 2 1 1 3zM112 106c-1 0-2 0-2-2 1 0 2 0 2 2zM155 134h-2l-6-4 1-3h3c0 3 3 4 4 7z"/><path fill="#878787" d="M148 127v3c-2 1-3-1-4-1-2-1-3-1-3-3l2-1 5 2z"/><path fill="#C1C1C1" d="m141 126 3 2c3 2 5 5 9 6h1v2c0 3 4 4 3 8h-2l-7-6-3-3-2-1-3-2-2-2 1-5 2 1z"/><path fill="#B1B1B1" d="M238 108h2-2z"/><path fill="#202020" d="M239 118c2 0 2 2 2 3 1 2 3 1 4 0 1-2 3-2 6-2h1c1 4 1 8-5 8l-2 2-5 8-5 4h-2l-1-1c3-5 3-10 5-15l2-7z"/><path fill="#282828" d="m224 163 2-7c0-1 0-2 2-3l2-1c4 1 5-1 4-4l4-4 1-2h2v-2l2-2c4 1 3 3 2 5l-1 4v1l-2 2c-2 1-2 2-2 4v2c-1 2-4 3-2 5v3c-2 1-3 0-5-1-1-1-1-2-3-1l-4 2-2-1z"/><path fill="#202020" d="M235 147c0 2 2 4 0 6s-4 1-7 0l3-8c2-1 2 2 4 2z"/><path fill="#0B0B0B" d="M235 147c-1 0-1 3-2 2-2 0 0-2-2-4l1-4h3l2 1 2 2c-1 2-1 3-4 3z"/><path fill="#B7B7B7" d="m265 101 5 7c1 1 2 3 0 4h-4c-2 1-3 1-1 3l4 2v1l-3 2c1 2 6 0 4 4l-3 2 3 1v3c-7 2-12 0-14-7 0-8 2-14 3-22 0-2-3-2-2-4 2-1 3-1 5 1l3 3z"/><path fill="#383838" d="M259 101c2 1 2 2 2 4-3 5-3 11-4 17h-2l-3-3h-1v-3l3-4v-4h2c2 0 1-1 1-2v-2l2-3z"/><path fill="#1C1C1C" d="m245 104 2-4 2-3c2 0 2 2 2 3 0 3-1 5-4 7-1 0-2-1-2-3z"/><path fill="#7E7E7E" d="M249 109c1 2 2 4-1 4-2 0-3 0-3-2 0-3 2-3 4-2z"/><path fill="#626262" d="M252 117h-1l-2-1c-1-1 1-1 2-2 2 0 1 1 1 3z"/><path fill="#1C1C1C" d="M257 104v1l-1 1c-1 0-3 0-3-2 1-2 2 0 4 0zM252 117l-1-3c0-1 1-2 3-2 0 2 0 3-2 5z"/><path fill="#585858" d="M256 106h1v3l-1 1v-4z"/><path fill="#1C1C1C" d="M254 108v2l-1-1 1-1z"/><path fill="#202020" d="m123 78 2 1v1c-1 0-2 0-2-2z"/><path fill="#080808" d="M197 231h1v2c0 3-1 6 3 8l3 1c-1 5-5 7-9 8-3 2-6 0-8-3l-3-5c0-2-1-4-3-5l-1 1 2 5 5 11v4h-5c-4-4-8-8-11-14-2-5-3-12-7-17v-1l-3-3-6-6v-3c2-1 3 0 4 1 1 0 3 2 4-1 1-1 2 0 3 1l1 1 4 4 2 3 3 8v-2c-2-6-2-6 5-7h3c4 3 9 4 13 9z"/><path fill="#0F0F0F" d="M155 217c3 0 4 4 7 5l2 3 2 8c-1 9 5 14 10 20l2 2c2 3-1 18-4 21-3 2-5 1-7-1-1 6-5 7-10 7-1 0-2 0-3-2 7-4 5-13 11-18v-3c-4-11-6-21-8-32 0-3-3-6-2-10z"/><path fill="#C1C1C1" d="M120 187c-2-2-4-1-6-1l-2-1c-1-1 0-2 1-2l5-4 3-2 1-1 9-1c3 0 5 0 6 4-2 5-7 5-11 7l-4 1h-2z"/><path fill="#7E7E7E" d="M126 187c2-4 6-4 10-7 2-2 1-4 1-7-1-3-2-2-4-1l-7 1h-2l-6-2-3-1c-2-3-6-4-9-7l1-2 2-1 6 2 5 2 1 1c2 3 5 3 8 3l5-2h5v1l2 10c1 2 1 3-1 4-4 3-8 6-14 6z"/><path fill="#1C1C1C" d="M107 192c1 0 2 0 1 1v1c-3 1-5 2-8 0v-1c2-3 4-2 7-1zM148 173c0 2 0 4-2 4-1 1-1-2-2-3 0-2 1-4 3-4 2-1 1 2 1 3z"/><path fill="#0F0F0F" d="M137 303c0 2-1 2-2 2v-2h2zM129 199l3 1c-1 1-2 1-3-1z"/><path fill="#080808" d="M137 268h-1l1-1v1z"/><path fill="#ADADAD" d="M121 187h1-1z"/><path fill="#878787" d="m85 175-1-2h1c4-4 8-4 13-3 6 2 13 0 19 1 1 1 2 1 1 3l-3 2c-5 2-9 3-14 1-3-2-5 0-8 0-3 1-5-1-8-2z"/><path fill="#A1A1A1" d="M93 177c3-2 6-3 10-1s7 0 12 0c-3 5-7 3-11 3l-11-2z"/><path fill="#A7A7A7" d="m119 177-1-2 2-1 1 1v2h-2z"/><path fill="#B7B7B7" d="M119 177h2c0 1-1 2-3 2l1-2z"/><path fill="#878787" d="M195 299c-3 0-4 1-5 4s-5 4-7 6c-2 3-5 1-8 1-6-2-12 1-17 6 0-6 9-12 14-12 12 0 19-6 24-16 2-3 3-6 7-7 2 4-1 7-3 10v1l-3 3-2 4z"/><path fill="#4A4A4A" d="M176 299h-1c-2 2-5 2-8 2-3-3-2-4 1-5 7-1 12-5 18-10l2-2h5c0 6-6 9-10 12l-7 3z"/><path fill="#383838" d="M187 286c-5 5-10 10-18 11-1 0-3 0-3 3v1h-5c0-2 1-4 3-4l10-5 7-5c2-1 4-2 6-1z"/><path fill="#A1A1A1" d="m199 292 4-11 1-2 4-5h4c1 3 4 1 6 3-2 2-4 1-6 1l-4 1c-1 4-5 7-5 12-1 1-2 2-4 1z"/><path fill="#585858" d="M176 299c0-2 2-3 4-4 6-1 9-6 13-11l2-1c-1 7-7 13-14 14-1 1-2 2-5 2zM166 301v-1l9-1c-2 4-5 3-9 2z"/><path fill="#383838" d="m195 283-2 1-4 1c-1-4 2-6 6-6v4z"/><path fill="#878787" d="M208 274c0 2-2 3-4 5-2-2 0-2 1-4-1-1 0-2 1-2l2 1z"/><path fill="#969696" d="M156 321h2v4l-4 1c0-2 0-4 2-5z"/><path fill="#626262" d="M201 275c0 2 0 4-2 5l-2-3 2-4h2v2z"/><path fill="#4A4A4A" d="M197 277c2 0 2 1 2 3l-4 1v-2c0-2 1-2 2-2z"/><path fill="#585858" d="m206 273-1 2-2-1-1-2 1-1h3v2z"/><path fill="#4A4A4A" d="M161 301h1c0 2 0 3-2 3-1-1-1-2 1-3z"/><path fill="#7E7E7E" d="m158 316-1 3c-3-1-1-2 1-3z"/><path fill="#4A4A4A" d="M203 271v3l-2 1v-3l2-1z"/><path fill="#0B0B0B" d="M201 272v1h-1c-3 0-5-2-7-4-2-1-4-2-7-1-2 2-2 4-2 6 1 5-2 9-2 14-2 2-4 4-8 4-1-3-6-3-6-7h-3c-3 0-6 1-8-3l3-1c4-2 7-4 5-9 2-1 2 1 2 1 2 4 6 4 7 0 3-5 2-10 4-16l-1-1c-4-3-5-8-9-10l-3-6-1-15 5 10c3 8 7 15 13 21 1 1 2 3 4 2 2-2-1-3-1-4 0-6-4-9-7-14-1-2 0-3 2-4 1-1 3-1 4 1 2 3 2 7 5 10 2 2 7 3 9 1 1-3 4-4 6-6h6c1 4-2 5-5 7l-9 9c-1 3-2 5 1 7 2 3 4 4 4 7z"/><path fill="#A7A7A7" d="M158 325v-4c3-5 10-6 14-3l2 2c-2 3-1 7-3 10-3 4-6 4-9 0-2-1-6 0-4-5z"/><path fill="#878787" d="M166 348h2-2z"/><path fill="#151515" d="m56 162-1 3-1-2v-2c0-1-1-3 1-4l2 1c2 2 0 3-1 4zM61 134c-1 1-1 2-2 1l-1-1h3zM51 159l1 1h-1v-1zM49 146l-1 1h-1c0-1 0-2 2-1z"/><path fill="#383838" d="M94 93c1 3-1 5-4 6 2 2 5 2 9 2-5 2-6 7-10 10l-1-2c0-1 2-2 1-3l-1-1-3 4c3 5 0 8-1 12-1 2-2 4 1 6v3c-4-2-5-6-8-9-1-1-1-4 2-5l3-3c-2-4-2-8 0-11l-2-4c4 0 5-6 9-4h3l2-1zM74 91l4 1-1 3c-3 1-4 2-1 3s2 3 1 3c-2 1-2 5-6 3-3-1-1-2 0-3 0-1 2-3-1-4-1 0-3 1-2-2 0-2 1-3 3-3l3-1z"/><path fill="#585858" d="m94 161 1-10-2-9v-3c6 0 8 3 6 11v9c-1 3-2 3-5 2z"/><path fill="#383838" d="M93 139v3c-5-2-7-6-8-11l2-1 2 1c0 2 1 3 3 4l1 1v3z"/><path fill="#7E7E7E" d="M94 161c1 0 3 1 4-2 3-2 4 1 5 3v3c-4 2-7 1-11-2v-2h2z"/><path fill="#383838" d="M93 142c3 2 4 5 2 9-3-2-2-5-2-9z"/><path fill="#4A4A4A" d="M88 131h-3v-4c3-1 3 1 3 4z"/><path fill="#383838" d="m75 88 2-2 1 1c0 1-1 2-3 2v-1z"/><path fill="#4A4A4A" d="M92 94h-3 3z"/><path fill="#B1B1B1" d="m309 173-12 2-10 3c-1-2-2-4 0-7h2c2-2 5 1 5-2s0-6-3-8l-3-1c-1-1-3 0-2-3 0-2 3-4 4-3 7 5 16 3 22 8 1 1 2 1 2 3-3 2-3 6-5 8z"/><path fill="#202020" d="M284 143v3l-2 3c-1 2-2 3-5 3l-19-7c4 4 7 10 9 15 1 2 1 4-1 5l-3 1-1-1c-2-2-3-4-3-7s-2-4-5-5c-2-2-1-5-4-7l-3-1-1-1c0-4 1-6 5-6l4-3c3-1 5-1 7 2s7 4 10 2c7-3 8-3 12 4z"/><path fill="#282828" d="M265 165c3-2 2-4 0-6-3-4-3-11-10-13v-2l1-1 6 2c3 1 5 3 9 2 2-1 2 4 6 4 2 4-1 9 0 13 0 1 0 0 0 0v-1c0-3 0-7 2-10h2v5l-2 7c0 3-2 4-6 4-4 1-6-1-8-4z"/><path fill="#1C1C1C" d="M284 143c-2 0-2-1-3-2-2-3-5-4-8-1s-10 2-12-2c-1-3-3-3-6-2l-2-2c-5 0-5 0-3-4 1-2 3-4 2-7 0-1 0-2 3-2l2 1c1 7 7 7 13 8l3 2c4 0 6 2 10 3 4 2 1 5 1 8z"/><path fill="#151515" d="m265 165 7 4 2 9c-2 3-1 4 3 4 1 2-1 3-2 3-3 0-5 1-7 3-2 1-3 3-6 3h-8v-2l1-1 1-1c2-1 3-2 3-4l-1-10c0-2 0-3 3-4h3l-1-1-1-3h3z"/><path fill="#ADADAD" d="M287 171v6l-8 2c-1-3-2-6 2-9l3 1h3z"/><path fill="#4A4A4A" d="M269 112c2-1 2-2 1-4h2c2 3 0 6 0 9h-3c-1 0-3 1-4-1-1 0-3-1-3-3s2-2 4-2l1 1 1 1 1-1zM281 158l-1-4v-1c-4 4-1 9-4 14l1-15 5-3h1l-2 9zM269 125c1-2 2-3-1-3-2 0-5 0-5-3 1-2 3-1 6-1l3 1c1 2 1 4-1 7h-1l-1-1z"/><path fill="#282828" d="M324 151v-4h-1l3-2 2-1c-1 2 0 6-4 7z"/><path fill="#585858" d="M271 126c3 1 2 3 2 6l-3-1v-3l1-2z"/><path fill="#6E6E6E" d="m272 119-3-1v-1h3v2z"/><path fill="#383838" d="M283 149h-1l1-3v3z"/><path fill="#B7B7B7" d="m284 171-3-1c1-1 2-1 3 1z"/><path fill="#1C1C1C" d="M326 145c0 1 0 2-2 2 0-1 0-2 2-2z"/><path fill="#B7B7B7" d="M288 136h-1 1z"/><path fill="#B1B1B1" d="M265 101c-3 2-4 0-3-3l3 3z"/><path fill="#626262" d="m337 184-1 3c-2 1-3 1-3-1-1-4 1-3 4-2z"/><path fill="#383838" d="M311 179c0 2 0 3-3 4l1-4h2z"/><path fill="#585858" d="M88 131c0-2-1-3-3-4 0-6 4-10 8-13 1-2 3-1 5 0 1 3-2 4-4 5-2 4-6 7-5 12h-1zM100 106c2 1 2 2 1 3l-6 2c1-3 4-3 5-5zM104 115c-1 1-1 3-3 2l-1-3c1-2 3-3 4 1z"/><path fill="#383838" d="M109 99h-3v-2c1 0 3 0 3 2zM120 99l-9 1c0-2 3-2 3-5 3 0 4 2 6 4zM112 92c1 0 2 1 2 3-1 0-2-1-2-3z"/><path fill="#A7A7A7" d="m199 292 4-1c-1 4-2 8-8 8l1-4 3-3z"/><path fill="#151515" d="M201 272c0-3-4-3-4-6-1-5 2-9 5-12 3-2 6-4 10-4 0 3 1 4 5 4-5 1-3 5-4 8l-2 1c-3 2-4 6-8 8l-2 1z"/><path fill="#0F0F0F" d="m212 250-8 4c-5 2-5 7-7 12-4 0-5-2-3-6 2-5 5-9 10-11 2-2 5-3 6-7l3 1c0 2-3 4-1 7z"/><path fill="#282828" d="M218 232c2 0 3 3 5 0l1-1h1v2l-2 6h-4l-1-1c-1-2-3-3-3-5l3-1zM214 241v-2l3-1v2l-3 1z"/><path fill="#0B0B0B" d="M217 240v-2h1l1 1-2 1z"/><path fill="#4A4A4A" d="m211 263 2-1v1h-2z"/><path fill="#1C1C1C" d="M222 275c2-1 4 0 5 3-2 0-4-2-5-3zM230 280h-2l-1-2c1 0 3 0 3 2z"/><path fill="#4A4A4A" d="M203 271c2-3 4-6 8-8l-2 5c-2 0-2 1-3 3h-3z"/><path fill="#0B0B0B" d="M331 190zM314 203c-1-1-3-1-3-3l1-1c2-1 2 2 4 2 0 1 0 2-2 2z"/><path fill="#0F0F0F" d="M268 218c-3 0-5-2-7-5l1-3v-1c0-1 2-3 3-1 1 3 4 6 3 10z"/><path fill="#A7A7A7" d="m248 205 2-2 4 1h2l1 1-1 2h-1c-1-1-3-2-4 0h-2c-1 1-1 0-2-1l1-1z"/><path fill="#585858" d="m255 207 2 2c0 3 3 5 4 8-5-1-5-5-6-10z"/><path fill="#383838" d="M262 190c3 2 3-3 6-2 2 0 2 1 0 2-1 1-4 1-5 4h-1l-1-2 1-2z"/><path fill="#4A4A4A" d="M277 182c-2 1-3 2-5 0-1-2-1-3 2-4 0 2 1 3 3 4z"/><path fill="#1C1C1C" d="M308 183c0 3-2 2-4 2 0-2 2-2 4-2z"/><path fill="#151515" d="m303 200-2-2 2-1v3z"/><path fill="#1C1C1C" d="M265 197h2l-1 1-1-1z"/><path fill="#0F0F0F" d="M275 218h-2l1-1 1 1z"/><path fill="#4A4A4A" d="M262 194h1v2l-2-1 1-1z"/><path fill="#383838" d="M256 207v-2l1 1-1 1z"/><path fill="#1C1C1C" d="m258 204-1-2c2 0 2 1 1 2z"/><path fill="#585858" d="m261 217 2 2c-1 0-2 0-2-2z"/><path fill="#080808" d="m262 210 2 1c0 1-1 2-3 2l1-3z"/><path fill="#1C1C1C" d="m233 227-1-1 1-1h3v2h-3z"/><path fill="#080808" d="M226 228v-3c2 0 4 1 5 3l-1 1-4-1z"/><path fill="#151515" d="M225 233v-3l2 1-2 2z"/><path fill="#080808" d="m231 225 1-3 2 1-1 2h-2zM238 218v2c-2 1-2 0-2-2h2z"/><path fill="#0F0F0F" d="m247 206 2 1c1 5-2 3-5 3v-1c1-1 3-1 3-3z"/><path fill="#6E6E6E" d="m243 209 1 1v2l-2-1-1-3 2 1z"/><path fill="#282828" d="m241 211 2 1v4c-3 0-3-2-3-5h1z"/><path fill="#1C1C1C" d="M240 211c0 2 1 3 3 5h-3l-2-3 2-2z"/><path fill="#585858" d="M92 163c4 0 6 3 11 2l13 4 2 1 1 2H99c-5-2-9-1-14 1 2-3 1-8 6-7l1-3z"/><path fill="#969696" d="M80 165v-1l2-1c2 0 3-2 5 0-2 2-4 2-7 2z"/><path fill="#4A4A4A" d="M83 168h2l-1 1-1-1z"/><path fill="#A7A7A7" d="m82 163-2 1v-2l2 1z"/><path fill="#4A4A4A" d="M164 202c0-5 2-9 5-13h3c1-2 1-5 3-6l6 6c1 4 1 6-3 7-2 0-2 2-1 4l-4-2c-1-1-2-3-4-1-1 1 0 3 1 4l4 3c3 1 3 3 3 7-5 1-7-2-10-5l-3-4z"/><path fill="#151515" d="m172 223-1-2-5-5c-1-1-2-2-1-4h12l9 5 3 3c1 5-1 4-5 3h-3c-3-3-6-1-9 0z"/><path fill="#1C1C1C" d="m177 212-1 3c-3-2-8 1-11-3-2 0-1-3-4-3l-1-1-1-4 4-1 4 2c2 3 6 4 10 6v1z"/><path fill="#0F0F0F" d="M180 179c1-4 3-1 5 0l10 7c1 0 2 1 1 2h-2l-6-2-2-2-4-4-2-1z"/><path fill="#C1C1C1" d="m176 182-3 9-2 2-2-3 1-2v-2l2-4 1-2c2-2 3-1 3 2z"/><path fill="#282828" d="m182 180 4 4c-2 0-4-1-4-4z"/><path fill="#4A4A4A" d="M177 200zM181 202c-1 0 0 0 0 0z"/><path fill="#151515" d="m127 192 2-1c2-1 3 2 4 1 2-1 3-2 4 0 1 1 0 2-1 2-1 1-2 4-4 2-2-1-4-1-5-4z"/><path fill="#B1B1B1" d="m163 185 1-4c2 1 4 3-1 4z"/><path fill="#626262" d="m167 205-3-2v-1c2 0 3 0 3 3z"/><path fill="#4A4A4A" d="M170 186v2c-2-1-3-1 0-3v1z"/><path fill="#383838" d="M170 186v-1l1-3c1 2 0 3-1 4zM225 163c1-2 3-2 5-1h3l5 2 1 2c-2 3-3 6-3 10-1 2 0 4-2 6l-1 2c-1-1-4-1-2-3s-1-2-2-3l1-2c1-1-1-5 4-4v-2c0-1-1-3-3-3l-5-1c-2-1-1-2-1-3z"/><path fill="#C1C1C1" d="m230 176-1 2c-2 0-3-1-3-2 1-3 2 0 4 0z"/><path fill="#151515" d="M225 163v3h-1v-3h1z"/><path fill="#080808" d="M262 170c-2 0-3 0-3 3v9c0 3-1 5-4 6l-1 1h-3v-2c3-2 2-4 2-7 1-3 0-4-3-4s-6 1-9-2v-2l3-3 3-3c2-2 0-5 2-8 2-1 3 0 4 2 1 1 2 3 5 3l4 2 1 2-1 3z"/><path fill="#383838" d="M241 172v2l-3 1c-3-1-2-4-1-6s2-3 5-3l2 2-3 4z"/><path fill="#1C1C1C" d="M238 169c-2 2-1 4 0 6l-1 2-2-1c0-3-1-7 3-10v3z"/><path fill="#0B0B0B" d="m235 176 2 1c0 2 1 4-3 5l1-6z"/><path fill="#282828" d="M161 209c2 0 4 0 4 3l1 4-3-2-2-5zM160 208l1 1-1-1zM262 194l-1 1h-4l-2-4 3-1 4 1v3z"/><path fill="#0B0B0B" d="M254 190v1c-1 2-2 0-3-1h3z"/><path fill="#383838" d="M254 190h-3v-1h3v1z"/><path fill="#080808" d="M237 197z"/><path fill="#282828" d="m220 208-1 2h-1l2-2z"/><path fill="#0B0B0B" d="M201 241c-6 0-6-1-3-8 2 2 3 4 3 8z"/><path fill="#0F0F0F" d="M217 238v1h-3l-4-2c-1-2 1-2 2-2 3-1 4 1 5 3z"/><path fill="#4A4A4A" d="m217 238-5-3v-2l1-1c1-1 1 0 2 1 0 2 3 2 3 5h-1z"/><path fill="#0B0B0B" d="M184 223c2 0 5 1 5-3h2c0 2-1 4 2 5l4 6-2 1c-2-5-8-5-11-9z"/><path fill="#080808" d="m217 229 1 1c-1 2-3 2-5 1 0-2 2-2 4-2z"/><path fill="#383838" d="M213 231h4l1 1-3 1-2-1v-1z"/><path fill="#080808" d="M225 230v1h-1v-1h1z"/><path fill="#282828" d="M232 225h1l-1 1v-1z"/><path fill="#A1A1A1" d="M98 156v-5l2-4c3-3 2-5-1-7-3-1-4-3-3-7l3-4h3c0 3-1 5 2 8 2 5 4 9 10 8l3 2-1 4c-1 3-4 3-7 3l-4-2v5l-1 1c-2 1-4 0-6-2z"/><path fill="#585858" d="m99 129-2 4c-1 1-1 3-4 3l-1-1c0-5 5-6 6-10l1 4z"/><path fill="#C1C1C1" d="m108 153 8-2 5 1h2l3-3 5-4v-1c3-3 6-3 10-3l1 1-1 5v10c-2 5-4 6-8 5-5-3-11-2-16-2-4 0-7-2-10-3-2-1-3-3 1-4z"/><path fill="#A1A1A1" d="M148 137c3 1 5 4 7 7-2 2-3 0-4-1-3-3-5-3-8-1h-1c-3-2-6 0-9-2l-1-4c6 2 3-3 4-6h2l2 1 3 2 2 1 3 3z"/><path fill="#BCBCBC" d="M132 140c3 0 7-1 10 2-3 1-7 0-11 2l1-4zM131 145c0 3-2 4-5 4 1-2 2-3 5-4z"/><path fill="#A1A1A1" d="M126 144c0-1 0-2 2-2 0 1 0 2-2 2z"/><path fill="#BCBCBC" d="M123 152h-1 1z"/><path fill="#A1A1A1" d="m128 142 1-1-1 1zM129 141s0-1 0 0z"/><path fill="#B7B7B7" d="M108 153c-2 0-3 2-1 2 2 1 5 4 7 3 6-2 10 3 15 0l3 2c4 2 6 2 8-4 2-2 4-3 3-6l2-2h3l5-1h1v1c0 4-4 5-6 8-4 2-6 6-9 10l-5 1c-2 0-4 0-5-2-2-4-4-2-6 0h-2c-1-2-3-2-6-2-2 0-4 1-5-2l-6-4c0-2 1-5-2-6 3-1 4 0 6 2z"/><path fill="#A1A1A1" d="m145 148-1 1-2 1h-2l1-3 4 1zM153 147c-1 1-3 2-5 1 1-2 3-2 5-1zM154 148v-1l1 1h-1z"/><path fill="#A7A7A7" d="M153 134c-4 1-6-3-9-6l4 2 5 4z"/><path fill="#B7B7B7" d="M148 137c-2 0-3 0-3-3l3 3z"/><path fill="#BCBCBC" d="M143 133c-1 0-2 0-3-2 1 0 2 0 3 2z"/><path fill="#151515" d="M255 121c0 1-2 0-2 2 1 4-1 7-3 11 3 1 2-3 4-3 2 1 1 3 1 5-1 4-6 2-7 5l-1 3h-3c0-2 2-3-1-5-3-3 0-6 1-10 0-2 0-3 2-3 5 0 5-3 6-7l3 2z"/><path fill="#1C1C1C" d="M244 129c2 3-2 6-1 10l-2 2c-2-1-2-2-2-4l5-8z"/><path fill="#A7A7A7" d="m239 137 1 4h1v1h-4l-2-1c0-2 0-4 4-4z"/><path fill="#0F0F0F" d="M239 156v-1l2-5 2-2h1l3 5-2 4c0 3 0 4-2 5l-4-2v-4z"/><path fill="#4A4A4A" d="m239 160 3 2 1 1v3l-5 3v-8l1-1z"/><path fill="#383838" d="m239 159-1 2c-1 0-2 2-2 0s0-4 3-5v3z"/><path fill="#202020" d="M244 144h3v3h-4l1-3z"/><path fill="#1C1C1C" d="M233 162h-3l1-3c2 0 2 1 2 3z"/><path fill="#383838" d="M241 150c0 1 0 3-2 4 0-1 0-3 2-4z"/><path fill="#585858" d="M243 147h6v1h-6v-1z"/><path fill="#202020" d="M237 142h3l-1 2c-1 0-2 0-2-2z"/><path fill="#1C1C1C" d="m241 142 1 2h-1v-2z"/><path fill="#383838" d="m271 126-1 1h-2c-1-1-4 1-4-1s3-1 5-1l2 1zM266 113v-2l3 1-1 2-2-1z"/><path fill="#0B0B0B" d="M172 223c3-2 5-6 9 0-2 0-3 2-6-1l3 12c-4 0-3-3-4-4l-2-7z"/><path fill="#282828" d="M166 216c2 0 5 1 5 5-3 0-4-2-5-5z"/><path fill="#0B0B0B" d="M164 225c-1 0-2-1-2-3 1 0 2 1 2 3z"/><path fill="#B7B7B7" d="M121 177v-2l4-3 7-1c2 0 4-1 6 1 0 3 4 6-2 8 0-4-2-5-5-4l-10 1z"/><path fill="#ADADAD" d="M123 165c0-2 1-4 3-4 3 0 4 1 4 3s3 1 4 3l-5 2c-2-2-5 0-6-4z"/><path fill="#6E6E6E" d="M116 169c-5 1-9-1-13-3l-1-3h5c3 1 7 3 9 6z"/><path fill="#969696" d="M107 163h-5c0-2-1-4-4-4v-3l6 2c2 0 3 1 3 3v2zM123 165c1 3 5 1 6 4-3 0-7 2-8-3l2-1z"/><path fill="#ADADAD" d="M115 163c3-3 5-2 6 2-2 0-4 1-6-2zM107 161l-3-3v-1c3 0 4 1 6 4h-3z"/><path fill="#C1C1C1" d="m138 172-5-1c2-1 4-4 5 1z"/><path fill="#A7A7A7" d="M125 172c0 2-1 3-4 3v-3h4z"/><path fill="#6E6E6E" d="M124 172h-5l-1-2 6 2z"/><path fill="#A1A1A1" d="M119 172h2v3h-3v-3h1z"/><path fill="#969696" d="M199 292c0 2-1 3-3 3 0-2 1-3 3-3z"/><path fill="#0F0F0F" d="M182 288c-1-3-1-6 1-9v-5c-1-3-1-5 2-7 2-2 6-2 8 0l6 6-1 4-3 2c-2 1-5 3-6 6l-2 1-5 2z"/><path fill="#7E7E7E" d="m93 136 4-3c0 3 0 5 3 7 5 3 5 3 1 8l-2 2h-1c3-6 0-9-5-11v-3z"/><path fill="#0F0F0F" d="M249 148v-1c-1-1 0-1 1-2 4 1 4 4 4 8 4 2 3 7 4 11-5 1-6-3-9-6l-1-1-1-3 2-6z"/><path fill="#151515" d="M258 164c-3-3-1-7-4-11 4-1 6 1 6 4l2 8-4-1z"/><path fill="#282828" d="m250 145-1 2h-2v-3l3 1z"/><path fill="#383838" d="M255 188c5-4 2-10 4-15 2 4 1 8 1 12 0 2-2 3-5 3zM262 170l1-3 1 1c1 1 3 1 2 3s-2 0-4-1z"/><path fill="#4A4A4A" d="m262 191-3-1h3v1z"/><path fill="#BCBCBC" d="m266 113 2 1-2 1v-2z"/><path fill="#282828" d="M280 153s0-1 0 0z"/><path fill="#202020" d="m248 157 1 1c-1 3 3 6-1 9l-2 1-4-4v-2c2-1 2-3 2-5h4z"/><path fill="#B7B7B7" d="M241 172c0-1 0-3 3-3 1 2 0 3-3 3z"/><path fill="#969696" d="M245 167h3l-3 2h-1c-1-1-1-2 1-2z"/><path fill="#C1C1C1" d="m245 167-1 2-1-2-1-3c2 0 4-1 3 3z"/><path fill="#BCBCBC" d="m142 150 2-1c1 3 2 6-4 7v-1c1-1 0-3 2-5z"/><path fill="#B7B7B7" d="M142 150c0 2 0 3-2 5-1-1-2-3 0-5h2z"/><path fill="#383838" d="M249 148c2 2 1 4-1 6h-1c-2-1-3-3-3-5l5-1z"/><path fill="#4A4A4A" d="M247 154h1v3h-3c-1-2-1-3 2-3z"/><path fill="#282828" d="M252 151c1-1 1 0 1 1h-1v-1z"/></svg>